<!DOCTYPE svg PUBLIC "-//W3C//DTD SVG 20010904//EN" "http://www.w3.org/TR/2001/REC-SVG-20010904/DTD/svg10.dtd">
<svg version="1.0" xmlns="http://www.w3.org/2000/svg" width="100px" height="117px" viewBox="0 0 1000 1170" preserveAspectRatio="xMidYMid meet">
<g id="layer1" fill="#768c5d" stroke="none">
 <path d="M650 845 c0 -8 7 -15 15 -15 8 0 15 7 15 15 0 8 -7 15 -15 15 -8 0 -15 -7 -15 -15z"/>
 </g>
<g id="layer2" fill="#a67f88" stroke="none">
 <path d="M198 723 c7 -3 16 -2 19 1 4 3 -2 6 -13 5 -11 0 -14 -3 -6 -6z"/>
 <path d="M700 716 c0 -9 7 -16 16 -16 17 0 14 22 -4 28 -7 2 -12 -3 -12 -12z"/>
 <path d="M200 100 c0 -5 7 -10 15 -10 8 0 15 5 15 10 0 6 -7 10 -15 10 -8 0 -15 -4 -15 -10z"/>
 </g>
<g id="layer3" fill="#d7bd43" stroke="none">
 <path d="M333 973 c-15 -5 -18 -33 -4 -33 8 0 25 30 19 35 -2 1 -9 0 -15 -2z"/>
 <path d="M380 950 c0 -5 5 -10 10 -10 6 0 10 5 10 10 0 6 -4 10 -10 10 -5 0 -10 -4 -10 -10z"/>
 <path d="M350 898 c0 -13 5 -30 10 -38 7 -11 10 -5 10 23 0 20 -4 37 -10 37 -5 0 -10 -10 -10 -22z"/>
 <path d="M437 876 c-9 -24 -10 -23 13 -29 23 -6 25 2 7 27 -13 18 -14 18 -20 2z"/>
 <path d="M380 780 c0 -5 5 -10 10 -10 6 0 10 5 10 10 0 6 -4 10 -10 10 -5 0 -10 -4 -10 -10z"/>
 <path d="M470 745 c0 -8 7 -15 15 -15 8 0 15 7 15 15 0 8 -7 15 -15 15 -8 0 -15 -7 -15 -15z"/>
 <path d="M390 725 c0 -8 5 -15 10 -15 6 0 10 7 10 15 0 8 -4 15 -10 15 -5 0 -10 -7 -10 -15z"/>
 </g>
<g id="layer4" fill="#563b29" stroke="none">
 <path d="M80 1040 c0 -5 5 -10 10 -10 6 0 10 5 10 10 0 6 -4 10 -10 10 -5 0 -10 -4 -10 -10z"/>
 <path d="M572 1024 c1 -9 9 -19 16 -22 9 -3 13 2 10 14 -1 9 -9 19 -16 22 -9 3 -13 -2 -10 -14z"/>
 <path d="M636 714 c-3 -9 -6 -19 -6 -24 0 -11 60 -31 71 -24 17 10 9 24 -16 30 -14 3 -25 12 -25 20 0 19 -16 18 -24 -2z"/>
 <path d="M143 704 c-8 -21 23 -46 51 -42 27 4 33 28 8 28 -12 0 -28 7 -36 16 -15 14 -17 14 -23 -2z"/>
 <path d="M210 484 c0 -9 5 -14 12 -12 18 6 21 28 4 28 -9 0 -16 -7 -16 -16z"/>
 <path d="M90 325 c0 -8 7 -15 15 -15 8 0 15 7 15 15 0 8 -7 15 -15 15 -8 0 -15 -7 -15 -15z"/>
 <path d="M140 107 c0 -8 7 -18 16 -21 28 -11 54 -6 54 9 0 8 -9 15 -19 15 -11 0 -26 3 -35 6 -10 4 -16 1 -16 -9z"/>
 <path d="M640 107 c0 -8 7 -18 16 -21 28 -11 54 -6 54 9 0 8 -9 15 -19 15 -11 0 -26 3 -35 6 -10 4 -16 1 -16 -9z"/>
 </g>
<g id="layer5" fill="#a99e98" stroke="none">
 <path d="M213 1163 c9 -2 23 -2 30 0 6 3 -1 5 -18 5 -16 0 -22 -2 -12 -5z"/>
 <path d="M588 1163 c7 -3 16 -2 19 1 4 3 -2 6 -13 5 -11 0 -14 -3 -6 -6z"/>
 <path d="M658 1163 c7 -3 16 -2 19 1 4 3 -2 6 -13 5 -11 0 -14 -3 -6 -6z"/>
 <path d="M60 1120 c0 -5 7 -10 15 -10 8 0 15 5 15 10 0 6 -7 10 -15 10 -8 0 -15 -4 -15 -10z"/>
 <path d="M180 1120 c0 -5 7 -10 15 -10 8 0 15 5 15 10 0 6 -7 10 -15 10 -8 0 -15 -4 -15 -10z"/>
 <path d="M610 1081 c0 -5 5 -13 10 -16 6 -3 10 -2 10 4 0 5 -4 13 -10 16 -5 3 -10 2 -10 -4z"/>
 <path d="M720 1075 c0 -8 5 -15 10 -15 6 0 10 7 10 15 0 8 -4 15 -10 15 -5 0 -10 -7 -10 -15z"/>
 <path d="M440 725 c0 -17 18 -19 38 -6 11 7 10 10 -3 15 -26 10 -35 7 -35 -9z"/>
 <path d="M903 733 c-20 -3 -33 -10 -33 -19 0 -16 35 -19 45 -4 3 5 12 7 20 3 9 -3 15 1 15 11 0 9 -3 15 -7 14 -5 0 -23 -3 -40 -5z"/>
 <path d="M387 723 c-12 -11 -8 -23 8 -23 8 0 15 7 15 15 0 16 -12 20 -23 8z"/>
 <path d="M777 473 c-4 -3 -7 -11 -7 -17 0 -6 5 -5 12 2 6 6 9 14 7 17 -3 3 -9 2 -12 -2z"/>
 <path d="M130 440 c0 -5 7 -10 15 -10 8 0 15 5 15 10 0 6 -7 10 -15 10 -8 0 -15 -4 -15 -10z"/>
 <path d="M657 332 c-18 -20 -22 -42 -9 -42 10 0 52 43 52 53 0 14 -27 7 -43 -11z"/>
 <path d="M30 270 c0 -5 7 -10 15 -10 8 0 15 5 15 10 0 6 -7 10 -15 10 -8 0 -15 -4 -15 -10z"/>
 <path d="M330 270 c0 -5 7 -10 15 -10 8 0 15 5 15 10 0 6 -7 10 -15 10 -8 0 -15 -4 -15 -10z"/>
 <path d="M370 245 c0 -8 5 -15 10 -15 6 0 10 7 10 15 0 8 -4 15 -10 15 -5 0 -10 -7 -10 -15z"/>
 <path d="M308 233 c7 -3 16 -2 19 1 4 3 -2 6 -13 5 -11 0 -14 -3 -6 -6z"/>
 <path d="M160 85 c0 -8 5 -15 10 -15 6 0 10 7 10 15 0 8 -4 15 -10 15 -5 0 -10 -7 -10 -15z"/>
 <path d="M660 85 c0 -8 5 -15 10 -15 6 0 10 7 10 15 0 8 -4 15 -10 15 -5 0 -10 -7 -10 -15z"/>
 </g>
<g id="layer6" fill="#a0935f" stroke="none">
 <path d="M585 1049 c-4 -6 -4 -13 -1 -16 8 -8 36 5 36 17 0 13 -27 13 -35 -1z"/>
 <path d="M130 1043 c0 -5 5 -15 10 -23 8 -12 10 -11 10 8 0 12 -4 22 -10 22 -5 0 -10 -3 -10 -7z"/>
 <path d="M620 1025 c0 -8 7 -15 15 -15 8 0 15 7 15 15 0 8 -7 15 -15 15 -8 0 -15 -7 -15 -15z"/>
 <path d="M183 840 c0 -38 1 -39 26 -33 33 8 33 7 25 27 -3 9 -12 16 -20 16 -8 0 -11 6 -8 15 4 9 0 15 -9 15 -10 0 -14 -11 -14 -40z"/>
 <path d="M674 858 c3 -13 6 -26 6 -30 0 -15 40 -8 40 7 0 8 -7 15 -15 15 -9 0 -12 6 -9 15 4 10 0 15 -11 15 -13 0 -16 -6 -11 -22z"/>
 <path d="M612 840 c-28 -45 -2 -69 33 -30 15 16 15 22 5 35 -16 20 -23 19 -38 -5z"/>
 <path d="M120 841 c0 -5 7 -14 15 -21 18 -15 42 1 31 19 -8 13 -46 15 -46 2z"/>
 <path d="M410 725 c0 -8 5 -15 10 -15 6 0 10 7 10 15 0 8 -4 15 -10 15 -5 0 -10 -7 -10 -15z"/>
 <path d="M557 333 c-4 -3 -7 -11 -7 -17 0 -6 5 -5 12 2 6 6 9 14 7 17 -3 3 -9 2 -12 -2z"/>
 <path d="M128 293 c7 -3 16 -2 19 1 4 3 -2 6 -13 5 -11 0 -14 -3 -6 -6z"/>
 <path d="M680 256 c0 -10 9 -16 21 -16 24 0 21 23 -4 28 -10 2 -17 -3 -17 -12z"/>
 <path d="M617 253 c-13 -12 -7 -23 13 -23 11 0 20 7 20 15 0 15 -21 21 -33 8z"/>
 <path d="M188 183 c7 -3 16 -2 19 1 4 3 -2 6 -13 5 -11 0 -14 -3 -6 -6z"/>
 <path d="M680 140 c0 -5 7 -10 15 -10 8 0 15 5 15 10 0 6 -7 10 -15 10 -8 0 -15 -4 -15 -10z"/>
 <path d="M198 133 c7 -3 16 -2 19 1 4 3 -2 6 -13 5 -11 0 -14 -3 -6 -6z"/>
 </g>
<g id="layer7" fill="#6d8f36" stroke="none">
 <path d="M162 875 c-12 -14 -29 -25 -37 -25 -20 0 -19 -13 4 -34 18 -17 20 -16 26 3 9 29 22 26 40 -9 22 -42 45 -39 45 5 0 23 -5 35 -14 35 -8 0 -17 11 -20 25 -4 14 -10 25 -14 25 -5 0 -18 -11 -30 -25z"/>
 <path d="M658 880 c-7 -11 -18 -20 -25 -20 -14 0 -17 -19 -7 -44 9 -24 24 -19 24 8 0 13 7 26 15 30 11 4 15 -1 15 -17 0 -30 24 -62 38 -53 19 11 14 55 -9 87 -24 34 -34 36 -51 9z"/>
 <path d="M110 775 c0 -8 7 -15 15 -15 8 0 15 7 15 15 0 8 -7 15 -15 15 -8 0 -15 -7 -15 -15z"/>
 <path d="M607 783 c-12 -11 -8 -23 8 -23 8 0 15 7 15 15 0 16 -12 20 -23 8z"/>
 <path d="M670 281 c0 -6 5 -13 10 -16 6 -4 8 -11 5 -16 -7 -10 18 -39 34 -39 20 0 12 59 -8 70 -24 13 -41 13 -41 1z"/>
 <path d="M615 270 c-9 -15 15 -62 29 -57 18 6 13 61 -6 65 -9 2 -19 -2 -23 -8z"/>
 <path d="M110 190 c0 -5 7 -10 15 -10 8 0 15 5 15 10 0 6 -7 10 -15 10 -8 0 -15 -4 -15 -10z"/>
 <path d="M605 189 c-4 -6 -4 -13 -1 -16 8 -8 36 5 36 17 0 13 -27 13 -35 -1z"/>
 </g>
<g id="layer8" fill="#f2ce97" stroke="none">
 <path d="M327 983 c-13 -12 -7 -18 23 -20 32 -2 41 11 14 21 -20 8 -29 8 -37 -1z"/>
 <path d="M520 875 c0 -8 7 -15 15 -15 8 0 15 7 15 15 0 8 -7 15 -15 15 -8 0 -15 -7 -15 -15z"/>
 <path d="M30 864 c0 -9 5 -14 12 -12 18 6 21 28 4 28 -9 0 -16 -7 -16 -16z"/>
 <path d="M403 858 c-14 -23 -12 -73 4 -90 23 -26 52 -22 63 8 14 35 13 38 -16 68 -30 29 -39 32 -51 14z m47 -48 c0 -5 -7 -7 -15 -4 -8 4 -12 10 -9 15 6 11 24 2 24 -11z"/>
 <path d="M60 834 c0 -16 23 -44 35 -44 20 0 19 20 -2 36 -19 14 -33 18 -33 8z"/>
 <path d="M550 834 c0 -16 23 -44 35 -44 20 0 19 20 -2 36 -19 14 -33 18 -33 8z"/>
 <path d="M180 775 c0 -8 5 -15 10 -15 6 0 10 7 10 15 0 8 -4 15 -10 15 -5 0 -10 -7 -10 -15z"/>
 <path d="M670 775 c0 -8 5 -15 10 -15 6 0 10 7 10 15 0 8 -4 15 -10 15 -5 0 -10 -7 -10 -15z"/>
 <path d="M170 740 c0 -5 7 -10 15 -10 8 0 15 5 15 10 0 6 -7 10 -15 10 -8 0 -15 -4 -15 -10z"/>
 <path d="M660 740 c0 -5 7 -10 15 -10 8 0 15 5 15 10 0 6 -7 10 -15 10 -8 0 -15 -4 -15 -10z"/>
 <path d="M602 458 c-16 -16 -15 -38 2 -38 18 0 39 27 31 40 -8 13 -18 13 -33 -2z"/>
 <path d="M84 299 c-8 -14 11 -33 25 -25 6 4 11 14 11 22 0 16 -26 19 -36 3z"/>
 <path d="M530 295 c0 -8 7 -15 15 -15 8 0 15 7 15 15 0 8 -7 15 -15 15 -8 0 -15 -7 -15 -15z"/>
 <path d="M80 230 c0 -20 5 -30 15 -30 10 0 15 10 15 30 0 20 -5 30 -15 30 -10 0 -15 -10 -15 -30z"/>
 <path d="M565 238 c11 -34 23 -44 37 -30 9 9 7 16 -10 32 -28 26 -35 25 -27 -2z"/>
 <path d="M680 195 c0 -8 5 -15 10 -15 6 0 10 7 10 15 0 8 -4 15 -10 15 -5 0 -10 -7 -10 -15z"/>
 <path d="M160 160 c0 -5 7 -10 15 -10 8 0 15 5 15 10 0 6 -7 10 -15 10 -8 0 -15 -4 -15 -10z"/>
 <path d="M660 150 c0 -11 7 -20 15 -20 8 0 15 9 15 20 0 11 -7 20 -15 20 -8 0 -15 -9 -15 -20z"/>
 </g>
<g id="layer9" fill="#afb0ae" stroke="none">
 <path d="M98 1163 c7 -3 16 -2 19 1 4 3 -2 6 -13 5 -11 0 -14 -3 -6 -6z"/>
 <path d="M183 1163 c9 -2 23 -2 30 0 6 3 -1 5 -18 5 -16 0 -22 -2 -12 -5z"/>
 <path d="M553 1163 c9 -2 23 -2 30 0 6 3 -1 5 -18 5 -16 0 -22 -2 -12 -5z"/>
 <path d="M653 1163 c9 -2 23 -2 30 0 6 3 -1 5 -18 5 -16 0 -22 -2 -12 -5z"/>
 <path d="M40 1085 c0 -8 7 -15 15 -15 8 0 15 7 15 15 0 8 -7 15 -15 15 -8 0 -15 -7 -15 -15z"/>
 <path d="M235 1087 c-4 -10 -5 -21 -1 -24 10 -10 18 4 13 24 -4 17 -4 17 -12 0z"/>
 <path d="M741 1034 c0 -11 3 -14 6 -6 3 7 2 16 -1 19 -3 4 -6 -2 -5 -13z"/>
 <path d="M150 930 c0 -5 7 -10 15 -10 8 0 15 5 15 10 0 6 -7 10 -15 10 -8 0 -15 -4 -15 -10z"/>
 <path d="M640 930 c0 -5 7 -10 15 -10 8 0 15 5 15 10 0 6 -7 10 -15 10 -8 0 -15 -4 -15 -10z"/>
 <path d="M658 823 c7 -3 16 -2 19 1 4 3 -2 6 -13 5 -11 0 -14 -3 -6 -6z"/>
 <path d="M930 731 c0 -5 7 -12 16 -15 22 -9 24 -8 24 9 0 8 -9 15 -20 15 -11 0 -20 -4 -20 -9z"/>
 <path d="M410 715 c0 -8 5 -15 10 -15 6 0 10 7 10 15 0 8 -4 15 -10 15 -5 0 -10 -7 -10 -15z"/>
 <path d="M900 720 c0 -5 5 -10 10 -10 6 0 10 5 10 10 0 6 -4 10 -10 10 -5 0 -10 -4 -10 -10z"/>
 <path d="M590 570 c0 -5 7 -10 15 -10 8 0 15 5 15 10 0 6 -7 10 -15 10 -8 0 -15 -4 -15 -10z"/>
 <path d="M33 537 c5 -15 37 -22 37 -9 0 5 -9 12 -21 15 -13 3 -19 1 -16 -6z"/>
 <path d="M56 463 c4 -10 7 -28 7 -40 -1 -13 5 -23 13 -23 8 0 14 2 14 5 0 13 -30 75 -36 75 -3 0 -3 -8 2 -17z"/>
 <path d="M171 454 c0 -11 3 -14 6 -6 3 7 2 16 -1 19 -3 4 -6 -2 -5 -13z"/>
 <path d="M765 449 c-4 -6 -5 -13 -2 -16 7 -7 27 6 27 18 0 12 -17 12 -25 -2z"/>
 <path d="M717 394 c-11 -14 -16 -28 -13 -31 7 -7 56 36 56 49 0 17 -26 6 -43 -18z"/>
 <path d="M707 323 c-4 -3 -7 -11 -7 -17 0 -6 5 -5 12 2 6 6 9 14 7 17 -3 3 -9 2 -12 -2z"/>
 <path d="M734 319 c-10 -17 13 -36 27 -22 12 12 4 33 -11 33 -5 0 -12 -5 -16 -11z"/>
 <path d="M645 260 c-7 -12 12 -40 26 -40 5 0 9 11 9 25 0 25 -23 35 -35 15z"/>
 <path d="M210 225 c0 -8 5 -15 10 -15 6 0 10 7 10 15 0 8 -4 15 -10 15 -5 0 -10 -7 -10 -15z"/>
 </g>
<g id="layer10" fill="#edd9d5" stroke="none">
 <path d="M38 1163 c6 -2 18 -2 25 0 6 3 1 5 -13 5 -14 0 -19 -2 -12 -5z"/>
 <path d="M108 1153 c7 -3 16 -2 19 1 4 3 -2 6 -13 5 -11 0 -14 -3 -6 -6z"/>
 <path d="M298 993 c7 -3 16 -2 19 1 4 3 -2 6 -13 5 -11 0 -14 -3 -6 -6z"/>
 <path d="M270 970 c0 -6 7 -13 15 -16 8 -4 15 -17 15 -30 0 -17 6 -24 20 -24 33 0 26 46 -10 65 -34 18 -40 18 -40 5z"/>
 <path d="M460 871 c0 -5 5 -13 10 -16 6 -3 10 -2 10 4 0 5 -4 13 -10 16 -5 3 -10 2 -10 -4z"/>
 <path d="M350 841 c0 -12 6 -21 15 -21 8 0 15 4 15 9 0 5 -7 14 -15 21 -13 10 -15 9 -15 -9z"/>
 <path d="M432 828 c6 -18 28 -21 28 -4 0 9 -7 16 -16 16 -9 0 -14 -5 -12 -12z"/>
 <path d="M240 810 c0 -5 5 -10 10 -10 6 0 10 5 10 10 0 6 -4 10 -10 10 -5 0 -10 -4 -10 -10z"/>
 <path d="M413 777 c5 -15 37 -22 37 -9 0 5 -9 12 -21 15 -13 3 -19 1 -16 -6z"/>
 <path d="M90 744 c0 -8 32 -33 43 -34 4 0 7 9 7 20 0 15 -7 20 -25 20 -14 0 -25 -3 -25 -6z"/>
 <path d="M250 720 c0 -5 7 -10 15 -10 8 0 15 5 15 10 0 6 -7 10 -15 10 -8 0 -15 -4 -15 -10z"/>
 <path d="M550 715 c0 -8 5 -15 10 -15 6 0 10 7 10 15 0 8 -4 15 -10 15 -5 0 -10 -7 -10 -15z"/>
 <path d="M118 693 c7 -3 16 -2 19 1 4 3 -2 6 -13 5 -11 0 -14 -3 -6 -6z"/>
 <path d="M870 690 c0 -5 7 -10 15 -10 8 0 15 5 15 10 0 6 -7 10 -15 10 -8 0 -15 -4 -15 -10z"/>
 <path d="M150 670 c0 -5 7 -10 15 -10 8 0 15 5 15 10 0 6 -7 10 -15 10 -8 0 -15 -4 -15 -10z"/>
 <path d="M770 325 c0 -8 5 -15 10 -15 6 0 10 7 10 15 0 8 -4 15 -10 15 -5 0 -10 -7 -10 -15z"/>
 <path d="M507 303 c-4 -3 -7 -11 -7 -17 0 -6 5 -5 12 2 6 6 9 14 7 17 -3 3 -9 2 -12 -2z"/>
 <path d="M740 195 c0 -8 5 -15 10 -15 6 0 10 7 10 15 0 8 -4 15 -10 15 -5 0 -10 -7 -10 -15z"/>
 <path d="M60 170 c0 -5 7 -10 15 -10 8 0 15 5 15 10 0 6 -7 10 -15 10 -8 0 -15 -4 -15 -10z"/>
 <path d="M568 133 c7 -3 16 -2 19 1 4 3 -2 6 -13 5 -11 0 -14 -3 -6 -6z"/>
 </g>
<g id="layer11" fill="#d0d0d0" stroke="none">
 <path d="M63 1163 c9 -2 25 -2 35 0 9 3 1 5 -18 5 -19 0 -27 -2 -17 -5z"/>
 <path d="M538 1163 c7 -3 16 -2 19 1 4 3 -2 6 -13 5 -11 0 -14 -3 -6 -6z"/>
 <path d="M207 1133 c-12 -11 -8 -23 8 -23 8 0 15 7 15 15 0 16 -12 20 -23 8z"/>
 <path d="M530 1085 c0 -8 7 -15 15 -15 8 0 15 7 15 15 0 8 -7 15 -15 15 -8 0 -15 -7 -15 -15z"/>
 <path d="M710 861 c0 -5 5 -13 10 -16 6 -3 10 -2 10 4 0 5 -4 13 -10 16 -5 3 -10 2 -10 -4z"/>
 <path d="M220 830 c0 -5 7 -10 15 -10 8 0 15 5 15 10 0 6 -7 10 -15 10 -8 0 -15 -4 -15 -10z"/>
 <path d="M660 830 c0 -5 5 -10 10 -10 6 0 10 5 10 10 0 6 -4 10 -10 10 -5 0 -10 -4 -10 -10z"/>
 <path d="M981 734 c0 -11 3 -14 6 -6 3 7 2 16 -1 19 -3 4 -6 -2 -5 -13z"/>
 <path d="M918 723 c-16 -8 -28 -18 -28 -24 0 -16 60 -10 67 7 9 24 -9 32 -39 17z"/>
 <path d="M430 721 c-14 -4 -26 -15 -28 -24 -3 -14 2 -16 30 -11 39 8 53 18 44 33 -8 12 -10 12 -46 2z"/>
 <path d="M140 570 c0 -5 7 -10 15 -10 8 0 15 5 15 10 0 6 -7 10 -15 10 -8 0 -15 -4 -15 -10z"/>
 <path d="M727 573 c-4 -3 -7 -11 -7 -17 0 -6 5 -5 12 2 6 6 9 14 7 17 -3 3 -9 2 -12 -2z"/>
 <path d="M210 533 c0 -12 5 -25 11 -28 19 -12 22 3 5 27 l-16 22 0 -21z"/>
 <path d="M80 530 c0 -5 5 -10 10 -10 6 0 10 5 10 10 0 6 -4 10 -10 10 -5 0 -10 -4 -10 -10z"/>
 <path d="M230 420 c0 -5 5 -10 10 -10 6 0 10 5 10 10 0 6 -4 10 -10 10 -5 0 -10 -4 -10 -10z"/>
 <path d="M690 344 c0 -9 9 -18 20 -21 11 -3 20 -12 20 -19 0 -8 6 -14 14 -14 8 0 14 11 14 26 0 18 -8 28 -25 35 -34 13 -43 11 -43 -7z"/>
 <path d="M191 334 c0 -11 3 -14 6 -6 3 7 2 16 -1 19 -3 4 -6 -2 -5 -13z"/>
 </g>
<g id="layer12" fill="#cbc1c3" stroke="none">
 <path d="M78 1163 c7 -3 16 -2 19 1 4 3 -2 6 -13 5 -11 0 -14 -3 -6 -6z"/>
 <path d="M158 1163 c6 -2 18 -2 25 0 6 3 1 5 -13 5 -14 0 -19 -2 -12 -5z"/>
 <path d="M521 1166 c2 -2 27 -6 54 -10 34 -4 45 -3 35 4 -14 9 -99 15 -89 6z"/>
 <path d="M690 1120 c0 -5 7 -10 15 -10 8 0 15 5 15 10 0 6 -7 10 -15 10 -8 0 -15 -4 -15 -10z"/>
 <path d="M251 1043 c0 -6 -4 -20 -7 -30 -5 -14 -4 -15 5 -7 7 7 11 20 8 30 -3 11 -5 14 -6 7z"/>
 <path d="M60 955 c0 -8 5 -15 10 -15 6 0 10 7 10 15 0 8 -4 15 -10 15 -5 0 -10 -7 -10 -15z"/>
 <path d="M26 911 c-9 -16 -16 -36 -16 -43 1 -7 10 4 21 25 11 22 18 41 15 44 -2 3 -12 -9 -20 -26z"/>
 <path d="M520 920 c-6 -12 -9 -24 -7 -27 3 -2 11 5 17 17 6 12 9 24 7 27 -3 2 -11 -5 -17 -17z"/>
 <path d="M160 835 c0 -8 7 -15 15 -15 8 0 15 7 15 15 0 8 -7 15 -15 15 -8 0 -15 -7 -15 -15z"/>
 <path d="M650 835 c0 -8 5 -15 10 -15 6 0 10 7 10 15 0 8 -4 15 -10 15 -5 0 -10 -7 -10 -15z"/>
 <path d="M720 835 c0 -18 19 -40 26 -32 4 4 0 15 -9 24 -9 10 -17 13 -17 8z"/>
 <path d="M557 763 c-4 -3 -7 -11 -7 -17 0 -6 5 -5 12 2 6 6 9 14 7 17 -3 3 -9 2 -12 -2z"/>
 <path d="M610 719 c0 -18 2 -19 15 -9 8 7 15 16 15 21 0 5 -7 9 -15 9 -9 0 -15 -9 -15 -21z"/>
 <path d="M967 733 c-4 -3 -7 -11 -7 -17 0 -6 5 -5 12 2 6 6 9 14 7 17 -3 3 -9 2 -12 -2z"/>
 <path d="M430 715 c0 -8 5 -15 10 -15 6 0 10 7 10 15 0 8 -4 15 -10 15 -5 0 -10 -7 -10 -15z"/>
 <path d="M891 714 c0 -11 3 -14 6 -6 3 7 2 16 -1 19 -3 4 -6 -2 -5 -13z"/>
 <path d="M66 704 c-17 -12 -17 -14 -4 -14 9 0 20 5 23 11 11 17 2 18 -19 3z"/>
 <path d="M850 685 c0 -8 5 -15 10 -15 6 0 10 7 10 15 0 8 -4 15 -10 15 -5 0 -10 -7 -10 -15z"/>
 <path d="M220 560 c0 -5 5 -10 10 -10 6 0 10 5 10 10 0 6 -4 10 -10 10 -5 0 -10 -4 -10 -10z"/>
 <path d="M630 440 c0 -5 9 -10 20 -10 11 0 20 5 20 10 0 6 -9 10 -20 10 -11 0 -20 -4 -20 -10z"/>
 <path d="M247 223 c-4 -3 -7 -11 -7 -17 0 -6 5 -5 12 2 6 6 9 14 7 17 -3 3 -9 2 -12 -2z"/>
 <path d="M717 183 c-4 -3 -7 -16 -6 -27 0 -19 1 -19 10 3 10 24 8 36 -4 24z"/>
 <path d="M110 165 c0 -8 5 -15 10 -15 6 0 10 7 10 15 0 8 -4 15 -10 15 -5 0 -10 -7 -10 -15z"/>
 <path d="M570 171 c0 -5 5 -13 10 -16 6 -3 10 -2 10 4 0 5 -4 13 -10 16 -5 3 -10 2 -10 -4z"/>
 <path d="M610 165 c0 -8 5 -15 10 -15 6 0 10 7 10 15 0 8 -4 15 -10 15 -5 0 -10 -7 -10 -15z"/>
 </g>
<g id="layer13" fill="#ede71e" stroke="none">
 <path d="M345 959 c-4 -12 -2 -26 4 -32 15 -15 14 -27 -4 -27 -20 0 -19 -3 10 -46 14 -20 25 -44 26 -53 0 -9 2 -29 2 -46 2 -29 3 -30 52 -30 l50 0 3 39 c4 51 -46 154 -92 190 -42 31 -43 32 -51 5z m97 -126 c27 -24 23 -53 -6 -53 -21 0 -24 4 -23 35 1 40 3 41 29 18z"/>
 </g>
<g id="layer14" fill="#dca89e" stroke="none">
 <path d="M300 990 c0 -5 5 -10 10 -10 6 0 10 5 10 10 0 6 -4 10 -10 10 -5 0 -10 -4 -10 -10z"/>
 <path d="M330 960 c0 -5 7 -10 15 -10 8 0 15 5 15 10 0 6 -7 10 -15 10 -8 0 -15 -4 -15 -10z"/>
 <path d="M540 950 c0 -5 5 -10 10 -10 6 0 10 5 10 10 0 6 -4 10 -10 10 -5 0 -10 -4 -10 -10z"/>
 <path d="M400 941 c0 -13 29 -35 37 -28 7 8 -15 37 -28 37 -5 0 -9 -4 -9 -9z"/>
 <path d="M280 920 c0 -5 7 -10 15 -10 8 0 15 5 15 10 0 6 -7 10 -15 10 -8 0 -15 -4 -15 -10z"/>
 <path d="M11 864 c0 -11 3 -14 6 -6 3 7 2 16 -1 19 -3 4 -6 -2 -5 -13z"/>
 <path d="M11 814 c0 -11 3 -14 6 -6 3 7 2 16 -1 19 -3 4 -6 -2 -5 -13z"/>
 <path d="M353 818 c2 -7 10 -13 17 -13 7 0 15 6 18 13 2 7 -5 12 -18 12 -13 0 -20 -5 -17 -12z"/>
 <path d="M30 790 c0 -5 7 -10 15 -10 8 0 15 5 15 10 0 6 -7 10 -15 10 -8 0 -15 -4 -15 -10z"/>
 <path d="M250 790 c0 -12 40 -33 48 -25 4 4 -2 13 -12 21 -23 16 -36 18 -36 4z"/>
 <path d="M770 770 c0 -5 7 -10 15 -10 8 0 15 5 15 10 0 6 -7 10 -15 10 -8 0 -15 -4 -15 -10z"/>
 <path d="M70 761 c0 -5 5 -13 10 -16 6 -3 10 -2 10 4 0 5 -4 13 -10 16 -5 3 -10 2 -10 -4z"/>
 <path d="M192 758 c3 -7 13 -15 22 -16 12 -3 17 1 14 10 -3 7 -13 15 -22 16 -12 3 -17 -1 -14 -10z"/>
 <path d="M480 750 c0 -11 7 -20 15 -20 8 0 15 9 15 20 0 11 -7 20 -15 20 -8 0 -15 -9 -15 -20z"/>
 <path d="M680 760 c0 -10 71 -50 90 -50 21 0 9 16 -30 38 -42 24 -60 28 -60 12z"/>
 <path d="M581 722 c-15 -28 -14 -31 9 -25 22 6 24 11 11 32 -7 11 -11 10 -20 -7z"/>
 <path d="M522 718 c6 -18 28 -21 28 -4 0 9 -7 16 -16 16 -9 0 -14 -5 -12 -12z"/>
 <path d="M74 703 c3 -8 6 -17 6 -19 0 -2 7 -4 15 -4 23 0 18 27 -6 33 -15 4 -19 2 -15 -10z"/>
 <path d="M210 710 c0 -5 7 -10 15 -10 8 0 15 5 15 10 0 6 -7 10 -15 10 -8 0 -15 -4 -15 -10z"/>
 <path d="M360 685 c0 -8 5 -15 10 -15 6 0 10 7 10 15 0 8 -4 15 -10 15 -5 0 -10 -7 -10 -15z"/>
 <path d="M600 465 c0 -8 5 -15 10 -15 6 0 10 7 10 15 0 8 -4 15 -10 15 -5 0 -10 -7 -10 -15z"/>
 <path d="M520 320 c0 -5 5 -10 10 -10 6 0 10 5 10 10 0 6 -4 10 -10 10 -5 0 -10 -4 -10 -10z"/>
 <path d="M790 310 c0 -5 7 -10 15 -10 8 0 15 5 15 10 0 6 -7 10 -15 10 -8 0 -15 -4 -15 -10z"/>
 <path d="M490 271 c0 -5 7 -14 15 -21 13 -10 15 -9 15 9 0 12 -6 21 -15 21 -8 0 -15 -4 -15 -9z"/>
 <path d="M748 272 c-21 -4 -24 -32 -4 -32 8 0 17 7 20 16 8 20 6 21 -16 16z"/>
 <path d="M790 250 c0 -5 7 -10 15 -10 8 0 15 5 15 10 0 6 -7 10 -15 10 -8 0 -15 -4 -15 -10z"/>
 <path d="M54 183 c5 -11 -1 -23 -16 -34 -29 -22 -21 -31 20 -23 27 5 32 11 32 34 0 16 -7 30 -16 34 -24 9 -27 8 -20 -11z"/>
 <path d="M680 180 c0 -5 7 -10 15 -10 8 0 15 5 15 10 0 6 -7 10 -15 10 -8 0 -15 -4 -15 -10z"/>
 <path d="M200 170 c0 -5 5 -10 10 -10 6 0 10 5 10 10 0 6 -4 10 -10 10 -5 0 -10 -4 -10 -10z"/>
 <path d="M110 129 c0 -11 5 -17 10 -14 6 3 10 13 10 21 0 8 -4 14 -10 14 -5 0 -10 -9 -10 -21z"/>
 <path d="M607 133 c-4 -3 -7 -11 -7 -17 0 -6 5 -5 12 2 6 6 9 14 7 17 -3 3 -9 2 -12 -2z"/>
 </g>
<g id="layer15" fill="#b8382a" stroke="none">
 <path d="M357 943 c-11 -10 -8 -63 3 -63 6 0 10 16 10 35 0 36 -2 40 -13 28z"/>
 <path d="M60 735 c0 -8 -7 -15 -15 -15 -8 0 -15 -7 -15 -16 0 -12 10 -15 48 -13 26 1 64 -3 84 -10 36 -12 58 -9 58 8 0 12 -68 43 -79 37 -5 -3 -14 1 -21 9 -16 20 -60 20 -60 0z"/>
 <path d="M531 719 c-7 -16 -11 -32 -8 -35 2 -3 26 0 51 7 35 9 50 9 59 0 6 -6 26 -11 44 -11 65 0 29 30 -65 54 -33 9 -62 16 -64 16 -1 0 -9 -14 -17 -31z"/>
 <path d="M60 156 c0 -7 -9 -16 -20 -19 -40 -10 -19 -25 43 -30 34 -3 75 -8 91 -12 20 -6 31 -4 37 6 13 21 11 29 -6 22 -9 -3 -24 2 -35 12 -10 9 -24 14 -29 10 -6 -3 -21 1 -33 9 -28 20 -48 20 -48 2z"/>
 <path d="M562 130 c-1 -30 1 -32 29 -26 16 3 41 1 55 -5 15 -5 35 -7 46 -3 18 5 17 7 -4 23 -13 10 -36 21 -53 24 -16 3 -39 8 -51 12 -18 6 -21 2 -22 -25z"/>
 </g>
<g id="layer16" fill="#a17052" stroke="none">
 <path d="M110 1055 c0 -8 5 -15 10 -15 6 0 10 7 10 15 0 8 -4 15 -10 15 -5 0 -10 -7 -10 -15z"/>
 <path d="M710 1050 c0 -5 5 -10 10 -10 6 0 10 5 10 10 0 6 -4 10 -10 10 -5 0 -10 -4 -10 -10z"/>
 <path d="M228 1043 c7 -3 16 -2 19 1 4 3 -2 6 -13 5 -11 0 -14 -3 -6 -6z"/>
 <path d="M137 1023 c-4 -3 -7 -11 -7 -17 0 -6 5 -5 12 2 6 6 9 14 7 17 -3 3 -9 2 -12 -2z"/>
 <path d="M220 1004 c0 -9 5 -14 12 -12 18 6 21 28 4 28 -9 0 -16 -7 -16 -16z"/>
 <path d="M720 1010 c0 -5 5 -10 10 -10 6 0 10 5 10 10 0 6 -4 10 -10 10 -5 0 -10 -4 -10 -10z"/>
 <path d="M570 940 c0 -5 7 -10 15 -10 8 0 15 5 15 10 0 6 -7 10 -15 10 -8 0 -15 -4 -15 -10z"/>
 <path d="M60 890 c0 -5 7 -10 15 -10 8 0 15 5 15 10 0 6 -7 10 -15 10 -8 0 -15 -4 -15 -10z"/>
 <path d="M550 890 c0 -5 7 -10 15 -10 8 0 15 5 15 10 0 6 -7 10 -15 10 -8 0 -15 -4 -15 -10z"/>
 <path d="M550 850 c0 -5 5 -10 10 -10 6 0 10 5 10 10 0 6 -4 10 -10 10 -5 0 -10 -4 -10 -10z"/>
 <path d="M80 825 c0 -8 5 -15 10 -15 6 0 10 7 10 15 0 8 -4 15 -10 15 -5 0 -10 -7 -10 -15z"/>
 <path d="M580 830 c0 -5 7 -10 15 -10 8 0 15 5 15 10 0 6 -7 10 -15 10 -8 0 -15 -4 -15 -10z"/>
 <path d="M110 805 c0 -8 7 -15 15 -15 8 0 15 7 15 15 0 8 -7 15 -15 15 -8 0 -15 -7 -15 -15z"/>
 <path d="M157 814 c-14 -14 -6 -24 19 -24 16 0 24 5 22 13 -5 14 -31 21 -41 11z"/>
 <path d="M647 813 c-15 -14 -6 -24 20 -21 34 4 43 28 11 28 -14 0 -28 -3 -31 -7z"/>
 <path d="M120 755 c0 -8 5 -15 10 -15 6 0 10 7 10 15 0 8 -4 15 -10 15 -5 0 -10 -7 -10 -15z"/>
 <path d="M198 713 c7 -3 16 -2 19 1 4 3 -2 6 -13 5 -11 0 -14 -3 -6 -6z"/>
 <path d="M860 711 c0 -5 5 -13 10 -16 6 -3 10 -2 10 4 0 5 -4 13 -10 16 -5 3 -10 2 -10 -4z"/>
 <path d="M200 470 c-8 -5 -11 -12 -8 -16 10 -9 38 3 38 16 0 12 -10 13 -30 0z"/>
 <path d="M716 473 c-11 -11 -6 -23 9 -23 8 0 15 4 15 9 0 13 -16 22 -24 14z"/>
 <path d="M91 444 c0 -11 3 -14 6 -6 3 7 2 16 -1 19 -3 4 -6 -2 -5 -13z"/>
 <path d="M230 439 c0 -18 2 -19 15 -9 8 7 15 16 15 21 0 5 -7 9 -15 9 -9 0 -15 -9 -15 -21z"/>
 <path d="M110 415 c0 -8 5 -15 10 -15 6 0 10 7 10 15 0 8 -4 15 -10 15 -5 0 -10 -7 -10 -15z"/>
 <path d="M607 343 c-4 -3 -7 -11 -7 -17 0 -6 5 -5 12 2 6 6 9 14 7 17 -3 3 -9 2 -12 -2z"/>
 <path d="M133 333 c-24 -9 -13 -21 22 -25 27 -3 34 -1 30 10 -3 7 -5 16 -5 18 0 5 -32 4 -47 -3z"/>
 <path d="M567 323 c-4 -3 -7 -11 -7 -17 0 -6 5 -5 12 2 6 6 9 14 7 17 -3 3 -9 2 -12 -2z"/>
 <path d="M230 290 c0 -5 7 -10 15 -10 8 0 15 5 15 10 0 6 -7 10 -15 10 -8 0 -15 -4 -15 -10z"/>
 <path d="M800 290 c0 -5 7 -10 15 -10 8 0 15 5 15 10 0 6 -7 10 -15 10 -8 0 -15 -4 -15 -10z"/>
 <path d="M40 235 c0 -8 7 -15 15 -15 8 0 15 7 15 15 0 8 -7 15 -15 15 -8 0 -15 -7 -15 -15z"/>
 <path d="M706 235 c-3 -8 -12 -12 -21 -9 -8 3 -15 2 -15 -3 0 -11 39 -49 43 -42 17 30 27 51 27 59 0 16 -27 12 -34 -5z"/>
 <path d="M127 203 c-22 -6 -17 -27 6 -31 12 -2 17 3 17 17 0 12 -1 20 -2 20 -2 -1 -11 -3 -21 -6z"/>
 <path d="M627 202 c-10 -2 -16 -9 -14 -15 6 -18 24 -19 31 -1 8 20 6 21 -17 16z"/>
 <path d="M630 140 c0 -5 7 -10 15 -10 8 0 15 5 15 10 0 6 -7 10 -15 10 -8 0 -15 -4 -15 -10z"/>
 <path d="M670 125 c0 -8 4 -15 10 -15 5 0 7 -8 3 -17 -5 -14 -3 -15 7 -7 7 7 9 21 5 33 -7 24 -25 28 -25 6z"/>
 </g>
<g id="layer17" fill="#919291" stroke="none">
 <path d="M218 1163 c7 -3 16 -2 19 1 4 3 -2 6 -13 5 -11 0 -14 -3 -6 -6z"/>
 <path d="M688 1163 c12 -2 30 -2 40 0 9 3 -1 5 -23 4 -22 0 -30 -2 -17 -4z"/>
 <path d="M517 1140 c7 -27 33 -48 33 -27 0 26 -11 47 -25 47 -8 0 -11 -8 -8 -20z"/>
 <path d="M650 1140 c0 -5 5 -10 10 -10 6 0 10 5 10 10 0 6 -4 10 -10 10 -5 0 -10 -4 -10 -10z"/>
 <path d="M73 1133 c-20 -8 -15 -23 7 -23 11 0 20 7 20 15 0 15 -6 17 -27 8z"/>
 <path d="M190 1125 c0 -8 7 -15 15 -15 8 0 15 7 15 15 0 8 -7 15 -15 15 -8 0 -15 -7 -15 -15z"/>
 <path d="M570 1130 c0 -5 5 -10 10 -10 6 0 10 5 10 10 0 6 -4 10 -10 10 -5 0 -10 -4 -10 -10z"/>
 <path d="M673 1125 c-19 -21 -16 -27 9 -23 13 2 24 11 26 21 4 20 -18 22 -35 2z"/>
 <path d="M720 1084 c0 -17 22 -14 28 4 2 7 -3 12 -12 12 -9 0 -16 -7 -16 -16z"/>
 <path d="M186 1004 c-4 -9 -4 -19 -1 -22 6 -6 35 18 35 29 0 16 -28 10 -34 -7z"/>
 <path d="M676 1004 c-4 -9 -4 -19 -1 -22 6 -6 35 18 35 29 0 16 -28 10 -34 -7z"/>
 <path d="M650 940 c0 -9 31 -30 44 -30 13 0 5 28 -10 34 -23 9 -34 7 -34 -4z"/>
 <path d="M50 900 c0 -5 5 -10 10 -10 6 0 10 5 10 10 0 6 -4 10 -10 10 -5 0 -10 -4 -10 -10z"/>
 <path d="M540 900 c0 -5 5 -10 10 -10 6 0 10 5 10 10 0 6 -4 10 -10 10 -5 0 -10 -4 -10 -10z"/>
 <path d="M160 815 c0 -8 5 -15 10 -15 6 0 10 7 10 15 0 8 -4 15 -10 15 -5 0 -10 -7 -10 -15z"/>
 <path d="M642 568 c6 -18 28 -21 28 -4 0 9 -7 16 -16 16 -9 0 -14 -5 -12 -12z"/>
 <path d="M30 555 c0 -8 5 -15 10 -15 6 0 10 7 10 15 0 8 -4 15 -10 15 -5 0 -10 -7 -10 -15z"/>
 <path d="M160 555 c0 -8 7 -15 15 -15 8 0 15 -4 15 -10 0 -5 5 -10 10 -10 18 0 11 29 -9 40 -26 13 -31 13 -31 -5z"/>
 <path d="M530 546 c0 -23 20 -30 46 -15 34 18 30 29 -11 29 -24 0 -35 -5 -35 -14z"/>
 <path d="M683 545 c-3 -9 -3 -18 0 -21 9 -9 27 6 27 22 0 19 -19 18 -27 -1z"/>
 <path d="M60 534 c0 -17 22 -14 28 4 2 7 -3 12 -12 12 -9 0 -16 -7 -16 -16z"/>
 <path d="M564 424 c3 -9 6 -19 6 -22 0 -9 20 21 20 31 0 4 -7 7 -16 7 -11 0 -14 -5 -10 -16z"/>
 <path d="M710 395 c-7 -9 -10 -18 -7 -22 8 -7 37 15 37 28 0 14 -16 11 -30 -6z"/>
 <path d="M64 384 c3 -9 6 -19 6 -22 0 -9 20 21 20 31 0 4 -7 7 -16 7 -11 0 -14 -5 -10 -16z"/>
 <path d="M230 320 c0 -5 5 -10 10 -10 6 0 10 5 10 10 0 6 -4 10 -10 10 -5 0 -10 -4 -10 -10z"/>
 <path d="M192 308 c6 -18 28 -21 28 -4 0 9 -7 16 -16 16 -9 0 -14 -5 -12 -12z"/>
 <path d="M718 313 c7 -3 16 -2 19 1 4 3 -2 6 -13 5 -11 0 -14 -3 -6 -6z"/>
 <path d="M630 295 c0 -8 5 -15 10 -15 6 0 10 7 10 15 0 8 -4 15 -10 15 -5 0 -10 -7 -10 -15z"/>
 <path d="M330 270 c20 -13 40 -13 40 0 0 6 -12 10 -27 10 -22 0 -25 -2 -13 -10z"/>
 <path d="M272 241 c-11 -7 -11 -9 2 -14 9 -4 23 -4 32 0 13 5 13 7 2 14 -16 11 -20 11 -36 0z"/>
 </g>
<g id="layer18" fill="#626834" stroke="none">
 <path d="M200 1085 c0 -8 5 -15 10 -15 6 0 10 7 10 15 0 8 -4 15 -10 15 -5 0 -10 -7 -10 -15z"/>
 <path d="M690 1085 c0 -8 5 -15 10 -15 6 0 10 7 10 15 0 8 -4 15 -10 15 -5 0 -10 -7 -10 -15z"/>
 <path d="M90 1080 c0 -5 5 -10 10 -10 6 0 10 5 10 10 0 6 -4 10 -10 10 -5 0 -10 -4 -10 -10z"/>
 <path d="M580 1074 c0 -17 22 -14 28 4 2 7 -3 12 -12 12 -9 0 -16 -7 -16 -16z"/>
 <path d="M100 1000 c0 -5 7 -10 15 -10 8 0 15 5 15 10 0 6 -7 10 -15 10 -8 0 -15 -4 -15 -10z"/>
 <path d="M180 895 c0 -8 4 -15 9 -15 5 0 7 -9 4 -20 -4 -14 0 -20 10 -20 25 0 29 18 10 45 -21 28 -33 32 -33 10z"/>
 <path d="M670 895 c0 -8 5 -15 10 -15 6 0 10 7 10 15 0 8 -4 15 -10 15 -5 0 -10 -7 -10 -15z"/>
 <path d="M123 870 c-24 -10 -30 -34 -12 -46 6 -3 9 -19 5 -35 -4 -24 -2 -29 13 -29 27 0 37 48 14 66 -17 13 -17 13 5 14 15 0 22 6 22 20 0 22 -12 24 -47 10z"/>
 <path d="M613 870 c-24 -10 -30 -25 -13 -35 6 -3 10 -15 10 -26 0 -11 7 -19 16 -19 12 0 15 6 10 25 -6 23 -4 25 28 25 30 0 56 14 45 24 -11 10 -77 13 -96 6z"/>
 <path d="M700 785 c0 -8 5 -15 10 -15 6 0 10 7 10 15 0 8 -4 15 -10 15 -5 0 -10 -7 -10 -15z"/>
 <path d="M608 763 c7 -3 16 -2 19 1 4 3 -2 6 -13 5 -11 0 -14 -3 -6 -6z"/>
 <path d="M80 501 c0 -10 9 -21 20 -24 23 -6 24 -3 10 24 -14 24 -30 25 -30 0z"/>
 <path d="M570 506 c0 -9 7 -16 16 -16 17 0 14 22 -4 28 -7 2 -12 -3 -12 -12z"/>
 <path d="M690 506 c0 -9 7 -16 16 -16 17 0 14 22 -4 28 -7 2 -12 -3 -12 -12z"/>
 <path d="M590 470 c0 -5 7 -10 15 -10 8 0 15 5 15 10 0 6 -7 10 -15 10 -8 0 -15 -4 -15 -10z"/>
 <path d="M680 450 c0 -5 7 -10 15 -10 8 0 15 5 15 10 0 6 -7 10 -15 10 -8 0 -15 -4 -15 -10z"/>
 <path d="M100 395 c0 -8 7 -15 15 -15 8 0 15 7 15 15 0 8 -7 15 -15 15 -8 0 -15 -7 -15 -15z"/>
 <path d="M174 314 c3 -9 6 -20 6 -25 0 -5 7 -9 16 -9 11 0 14 5 10 16 -3 9 -6 20 -6 25 0 5 -7 9 -16 9 -11 0 -14 -5 -10 -16z"/>
 <path d="M644 278 c-4 -5 -1 -15 5 -21 13 -13 62 1 68 20 5 14 -64 15 -73 1z"/>
 <path d="M118 273 c7 -3 16 -2 19 1 4 3 -2 6 -13 5 -11 0 -14 -3 -6 -6z"/>
 <path d="M605 238 c13 -63 42 -66 31 -3 -4 22 -13 35 -22 35 -12 0 -14 -7 -9 -32z"/>
 <path d="M690 231 c0 -5 7 -14 15 -21 16 -14 18 -10 9 14 -6 17 -24 22 -24 7z"/>
 <path d="M110 218 c0 -7 -3 -23 -6 -35 -10 -37 22 -28 35 8 14 41 14 39 -9 39 -11 0 -20 -6 -20 -12z"/>
 </g>
<g id="layer19" fill="#2d2b19" stroke="none">
 <path d="M75 1150 c3 -5 12 -10 20 -10 8 0 17 5 20 10 4 6 -5 10 -20 10 -15 0 -24 -4 -20 -10z"/>
 <path d="M205 1150 c3 -5 13 -10 21 -10 8 0 14 5 14 10 0 6 -9 10 -21 10 -11 0 -17 -4 -14 -10z"/>
 <path d="M525 1150 c3 -5 17 -10 30 -10 13 0 27 5 30 10 4 6 -8 10 -30 10 -22 0 -34 -4 -30 -10z"/>
 <path d="M675 1150 c3 -5 17 -10 30 -10 13 0 27 5 30 10 4 6 -8 10 -30 10 -22 0 -34 -4 -30 -10z"/>
 <path d="M54 1097 c-6 -16 12 -67 24 -67 10 0 32 22 32 32 0 4 -7 8 -15 8 -8 0 -15 9 -15 20 0 22 -18 27 -26 7z"/>
 <path d="M177 1103 c-13 -13 -7 -53 8 -53 10 0 15 10 15 30 0 29 -9 38 -23 23z"/>
 <path d="M544 1097 c-6 -17 12 -67 25 -67 4 0 15 7 22 16 11 13 10 17 -4 25 -9 6 -17 17 -17 24 0 19 -19 20 -26 2z"/>
 <path d="M667 1103 c-12 -11 -8 -23 8 -23 8 0 15 7 15 15 0 16 -12 20 -23 8z"/>
 <path d="M80 1010 c0 -5 7 -10 15 -10 8 0 15 5 15 10 0 6 -7 10 -15 10 -8 0 -15 -4 -15 -10z"/>
 <path d="M210 995 c0 -8 5 -15 10 -15 6 0 10 7 10 15 0 8 -4 15 -10 15 -5 0 -10 -7 -10 -15z"/>
 <path d="M700 990 c0 -5 5 -10 10 -10 6 0 10 5 10 10 0 6 -4 10 -10 10 -5 0 -10 -4 -10 -10z"/>
 <path d="M72 963 c5 -25 28 -28 28 -4 0 12 -6 21 -16 21 -9 0 -14 -7 -12 -17z"/>
 <path d="M171 939 c-15 -44 -14 -46 14 -19 28 26 33 50 11 50 -8 0 -19 -14 -25 -31z"/>
 <path d="M570 960 c0 -5 7 -10 15 -10 8 0 15 5 15 10 0 6 -7 10 -15 10 -8 0 -15 -4 -15 -10z"/>
 <path d="M670 955 c0 -8 7 -15 15 -15 8 0 15 7 15 15 0 8 -7 15 -15 15 -8 0 -15 -7 -15 -15z"/>
 <path d="M657 923 c-4 -3 -7 -11 -7 -17 0 -6 5 -5 12 2 6 6 9 14 7 17 -3 3 -9 2 -12 -2z"/>
 <path d="M50 565 c0 -9 9 -15 25 -15 16 0 25 6 25 15 0 9 -9 15 -25 15 -16 0 -25 -6 -25 -15z"/>
 <path d="M160 565 c0 -8 5 -15 10 -15 6 0 10 7 10 15 0 8 -4 15 -10 15 -5 0 -10 -7 -10 -15z"/>
 <path d="M540 565 c0 -9 11 -13 30 -13 17 1 30 6 30 13 0 7 -13 12 -30 13 -19 0 -30 -4 -30 -13z"/>
 <path d="M710 570 c0 -5 5 -10 10 -10 6 0 10 5 10 10 0 6 -4 10 -10 10 -5 0 -10 -4 -10 -10z"/>
 <path d="M180 515 c-7 -8 -10 -27 -7 -42 4 -21 -2 -33 -25 -55 -17 -15 -34 -28 -38 -28 -14 0 -17 61 -3 75 19 19 16 28 -7 22 -15 -4 -20 0 -20 14 0 11 -7 19 -16 19 -13 0 -15 -6 -9 -32 4 -18 9 -61 12 -96 4 -52 8 -62 21 -60 10 1 23 -1 30 -6 7 -4 19 -3 26 3 9 7 16 7 23 0 16 -16 33 -2 33 25 0 12 5 27 12 34 6 6 8 15 4 19 -4 4 -11 1 -16 -7 -15 -24 -23 -4 -9 22 15 27 22 108 10 108 -5 0 -14 -7 -21 -15z"/>
 <path d="M675 520 c-4 -6 -5 -23 -4 -39 2 -15 -4 -40 -14 -54 -34 -52 -12 -67 23 -16 15 20 21 40 18 60 -3 16 -1 29 4 29 4 0 8 7 8 15 0 17 -25 20 -35 5z"/>
 <path d="M550 496 c0 -34 23 -51 49 -34 27 16 27 32 1 25 -15 -4 -20 0 -20 14 0 10 -7 19 -15 19 -9 0 -15 -9 -15 -24z"/>
 <path d="M573 395 c0 -24 22 -45 46 -45 19 0 12 32 -8 37 -12 3 -17 11 -14 19 3 8 -1 14 -10 14 -9 0 -14 -10 -14 -25z"/>
 <path d="M635 319 c-4 -6 -5 -13 -2 -16 7 -7 27 6 27 18 0 12 -17 12 -25 -2z"/>
 </g>
<g id="layer20" fill="#6f706e" stroke="none">
 <path d="M28 1153 c7 -3 16 -2 19 1 4 3 -2 6 -13 5 -11 0 -14 -3 -6 -6z"/>
 <path d="M553 1143 c-23 -9 -14 -28 19 -41 36 -13 51 -6 25 12 -9 7 -17 18 -17 25 0 12 -7 13 -27 4z"/>
 <path d="M40 1130 c0 -5 9 -10 20 -10 11 0 20 5 20 10 0 6 -9 10 -20 10 -11 0 -20 -4 -20 -10z"/>
 <path d="M230 1090 c0 -5 5 -10 10 -10 6 0 10 5 10 10 0 6 -4 10 -10 10 -5 0 -10 -4 -10 -10z"/>
 <path d="M195 1019 c-4 -6 -4 -13 -1 -16 8 -8 36 5 36 17 0 13 -27 13 -35 -1z"/>
 <path d="M685 1019 c-4 -6 -4 -13 -1 -16 8 -8 36 5 36 17 0 13 -27 13 -35 -1z"/>
 <path d="M156 944 c-6 -27 -11 -34 -23 -30 -11 4 -14 2 -9 -9 3 -8 1 -15 -4 -15 -6 0 -10 -7 -10 -15 0 -20 16 -19 24 1 4 10 12 14 22 10 11 -4 14 -1 9 13 -3 11 0 21 8 24 18 7 19 57 2 57 -7 0 -16 -16 -19 -36z"/>
 <path d="M650 964 c0 -9 5 -14 12 -12 18 6 21 28 4 28 -9 0 -16 -7 -16 -16z"/>
 <path d="M180 910 c0 -5 7 -10 15 -10 8 0 15 5 15 10 0 6 -7 10 -15 10 -8 0 -15 -4 -15 -10z"/>
 <path d="M601 906 c-14 -17 -7 -36 14 -36 22 0 29 20 13 36 -13 13 -16 13 -27 0z"/>
 <path d="M30 575 c0 -8 5 -15 10 -15 6 0 10 7 10 15 0 8 -4 15 -10 15 -5 0 -10 -7 -10 -15z"/>
 <path d="M90 564 c0 -17 22 -14 28 4 2 7 -3 12 -12 12 -9 0 -16 -7 -16 -16z"/>
 <path d="M537 573 c-4 -3 -7 -11 -7 -17 0 -6 5 -5 12 2 6 6 9 14 7 17 -3 3 -9 2 -12 -2z"/>
 <path d="M178 553 c-24 -6 -23 -20 3 -28 14 -5 25 -2 30 6 18 28 9 33 -33 22z"/>
 <path d="M663 544 c-6 -17 12 -34 36 -34 8 0 11 7 8 20 -3 10 0 21 7 24 6 2 -2 5 -17 5 -17 1 -30 -5 -34 -15z"/>
 <path d="M40 540 c0 -5 7 -10 15 -10 8 0 15 -4 15 -10 0 -5 5 -10 10 -10 16 0 11 27 -6 34 -23 9 -34 7 -34 -4z"/>
 <path d="M566 525 c21 -16 44 -19 44 -6 0 10 -24 21 -48 21 -13 0 -12 -3 4 -15z"/>
 <path d="M550 471 c0 -5 5 -13 10 -16 6 -3 10 -2 10 4 0 5 -4 13 -10 16 -5 3 -10 2 -10 -4z"/>
 <path d="M757 473 c-13 -12 -7 -23 13 -23 11 0 20 7 20 15 0 15 -21 21 -33 8z"/>
 <path d="M571 404 c0 -11 3 -14 6 -6 3 7 2 16 -1 19 -3 4 -6 -2 -5 -13z"/>
 <path d="M630 410 c-8 -5 -11 -12 -8 -16 10 -9 38 3 38 16 0 12 -10 13 -30 0z"/>
 <path d="M670 362 c0 -14 25 -62 32 -62 15 0 17 18 5 44 -11 24 -37 37 -37 18z"/>
 <path d="M615 320 c-9 -10 -15 -26 -12 -35 9 -21 27 -19 27 4 0 11 5 23 10 26 12 8 13 25 2 25 -5 0 -17 -9 -27 -20z"/>
 <path d="M560 311 c0 -5 5 -13 10 -16 6 -3 10 -2 10 4 0 5 -4 13 -10 16 -5 3 -10 2 -10 -4z"/>
 <path d="M370 255 c0 -8 7 -15 15 -15 8 0 15 7 15 15 0 8 -7 15 -15 15 -8 0 -15 -7 -15 -15z"/>
 <path d="M134 249 c-9 -15 10 -31 42 -35 15 -1 31 -10 36 -18 11 -20 28 -21 28 -1 0 8 -7 15 -15 15 -8 0 -15 7 -15 16 0 10 -6 14 -15 10 -8 -3 -21 1 -29 9 -17 18 -23 18 -32 4z"/>
 <path d="M230 240 c0 -5 7 -10 15 -10 8 0 15 5 15 10 0 6 -7 10 -15 10 -8 0 -15 -4 -15 -10z"/>
 </g>
<g id="layer21" fill="#504d34" stroke="none">
 <path d="M74 1095 c-4 -8 -3 -23 2 -32 4 -10 6 -24 5 -30 -4 -29 27 -11 33 18 9 45 -26 82 -40 44z"/>
 <path d="M563 1094 c-3 -8 0 -26 7 -40 13 -24 14 -24 32 -4 22 24 22 29 1 46 -24 18 -32 17 -40 -2z"/>
 <path d="M680 1084 c0 -10 7 -14 22 -12 32 5 35 28 4 28 -17 0 -26 -5 -26 -16z"/>
 <path d="M190 1076 c0 -9 7 -16 16 -16 17 0 14 22 -4 28 -7 2 -12 -3 -12 -12z"/>
 <path d="M190 984 c-14 -36 -13 -39 10 -19 21 19 27 45 10 45 -6 0 -15 -12 -20 -26z"/>
 <path d="M610 996 c0 -9 7 -16 16 -16 17 0 14 22 -4 28 -7 2 -12 -3 -12 -12z"/>
 <path d="M680 984 c-14 -36 -13 -39 10 -19 21 19 27 45 10 45 -6 0 -15 -12 -20 -26z"/>
 <path d="M120 985 c0 -8 5 -15 10 -15 6 0 10 7 10 15 0 8 -4 15 -10 15 -5 0 -10 -7 -10 -15z"/>
 <path d="M80 890 c0 -5 5 -10 10 -10 6 0 10 5 10 10 0 6 -4 10 -10 10 -5 0 -10 -4 -10 -10z"/>
 <path d="M143 883 c-7 -2 -13 -12 -13 -20 0 -10 6 -13 16 -9 9 3 20 6 25 6 5 0 9 7 9 15 0 15 -14 18 -37 8z"/>
 <path d="M633 883 c-7 -2 -13 -12 -13 -20 0 -10 6 -13 16 -9 9 3 20 6 25 6 5 0 9 7 9 15 0 15 -14 18 -37 8z"/>
 <path d="M185 509 c-4 -5 -4 -22 0 -36 3 -14 1 -39 -6 -55 -14 -33 -5 -47 19 -32 11 7 17 24 17 48 0 22 6 41 15 46 10 7 11 10 3 10 -7 0 -13 7 -13 15 0 17 -26 20 -35 4z"/>
 <path d="M74 494 c3 -9 6 -25 6 -37 1 -20 2 -21 14 -4 7 9 18 17 25 17 16 0 14 11 -6 26 -25 19 -47 18 -39 -2z"/>
 <path d="M577 503 c-16 -15 -6 -34 15 -31 29 4 38 38 10 38 -10 0 -22 -3 -25 -7z"/>
 <path d="M684 497 c-2 -7 1 -25 9 -39 l13 -26 13 30 c12 25 11 32 0 39 -20 12 -29 11 -35 -4z"/>
 <path d="M730 450 c0 -5 7 -10 15 -10 8 0 15 5 15 10 0 6 -7 10 -15 10 -8 0 -15 -4 -15 -10z"/>
 <path d="M85 410 c-4 -6 -2 -17 4 -24 6 -7 8 -15 5 -19 -12 -12 8 -47 27 -47 10 0 19 5 19 10 0 6 -5 10 -11 10 -8 0 -9 13 -5 40 5 35 4 40 -13 40 -11 0 -23 -5 -26 -10z"/>
 <path d="M590 395 c0 -14 5 -25 10 -25 6 0 10 7 10 15 0 8 5 15 10 15 6 0 10 5 10 10 0 6 -9 10 -20 10 -15 0 -20 -7 -20 -25z"/>
 <path d="M570 310 c0 -5 9 -10 20 -10 11 0 20 5 20 10 0 6 -9 10 -20 10 -11 0 -20 -4 -20 -10z"/>
 <path d="M122 268 c7 -19 38 -22 38 -4 0 10 -9 16 -21 16 -12 0 -19 -5 -17 -12z"/>
 <path d="M260 265 c0 -8 7 -15 15 -15 8 0 15 7 15 15 0 8 -7 15 -15 15 -8 0 -15 -7 -15 -15z"/>
 <path d="M600 270 c0 -5 5 -10 10 -10 6 0 10 5 10 10 0 6 -4 10 -10 10 -5 0 -10 -4 -10 -10z"/>
 <path d="M130 210 c0 -5 5 -10 10 -10 6 0 10 5 10 10 0 6 -4 10 -10 10 -5 0 -10 -4 -10 -10z"/>
 <path d="M630 210 c0 -5 5 -10 10 -10 6 0 10 5 10 10 0 6 -4 10 -10 10 -5 0 -10 -4 -10 -10z"/>
 </g>
<g id="layer22" fill="#696455" stroke="none">
 <path d="M63 1103 c9 -2 23 -2 30 0 6 3 -1 5 -18 5 -16 0 -22 -2 -12 -5z"/>
 <path d="M210 1103 c0 -5 5 -15 10 -23 8 -12 10 -11 10 8 0 12 -4 22 -10 22 -5 0 -10 -3 -10 -7z"/>
 <path d="M120 1071 c0 -5 5 -13 10 -16 6 -3 10 -2 10 4 0 5 -4 13 -10 16 -5 3 -10 2 -10 -4z"/>
 <path d="M146 965 c-18 -19 -38 -35 -45 -35 -8 0 -11 -6 -7 -16 3 -9 6 -22 6 -30 0 -8 7 -14 16 -14 12 0 15 7 12 25 -3 14 -2 25 3 25 12 0 69 57 69 70 0 20 -23 10 -54 -25z"/>
 <path d="M632 959 c-13 -16 -30 -29 -38 -29 -10 0 -12 -8 -8 -29 4 -20 2 -30 -10 -34 -20 -8 -21 -27 -1 -27 8 0 15 7 15 15 0 8 5 15 10 15 6 0 10 11 10 25 0 14 4 25 10 25 10 0 70 55 70 65 0 16 -38 0 -58 -26z"/>
 <path d="M30 904 c0 -17 22 -14 28 4 2 7 -3 12 -12 12 -9 0 -16 -7 -16 -16z"/>
 <path d="M627 803 c-12 -11 -8 -23 8 -23 8 0 15 7 15 15 0 16 -12 20 -23 8z"/>
 <path d="M381 704 c0 -11 3 -14 6 -6 3 7 2 16 -1 19 -3 4 -6 -2 -5 -13z"/>
 <path d="M50 576 c0 -18 27 -29 36 -14 4 5 0 14 -7 19 -20 13 -29 11 -29 -5z"/>
 <path d="M560 571 c0 -5 5 -13 10 -16 6 -3 10 -2 10 4 0 5 -4 13 -10 16 -5 3 -10 2 -10 -4z"/>
 <path d="M177 538 c-6 -21 -2 -36 7 -27 10 11 16 49 8 49 -5 0 -12 -10 -15 -22z"/>
 <path d="M568 493 c-27 -7 -22 -23 7 -23 16 0 25 6 25 15 0 15 -2 16 -32 8z"/>
 <path d="M570 446 c0 -9 7 -16 16 -16 17 0 14 22 -4 28 -7 2 -12 -3 -12 -12z"/>
 <path d="M590 395 c0 -8 7 -15 15 -15 8 0 15 7 15 15 0 8 -7 15 -15 15 -8 0 -15 -7 -15 -15z"/>
 <path d="M680 381 c-19 -16 -32 -32 -29 -36 11 -11 57 6 63 23 3 10 9 23 12 30 9 20 -9 13 -46 -17z"/>
 <path d="M540 335 c0 -8 5 -15 10 -15 6 0 10 7 10 15 0 8 -4 15 -10 15 -5 0 -10 -7 -10 -15z"/>
 <path d="M220 310 c0 -5 7 -10 15 -10 8 0 15 5 15 10 0 6 -7 10 -15 10 -8 0 -15 -4 -15 -10z"/>
 <path d="M163 265 c-19 -14 -17 -22 7 -25 28 -4 40 0 40 14 0 20 -25 27 -47 11z"/>
 <path d="M248 273 c7 -3 16 -2 19 1 4 3 -2 6 -13 5 -11 0 -14 -3 -6 -6z"/>
 <path d="M258 257 c-31 -7 -38 -14 -38 -33 0 -15 6 -24 16 -24 10 0 14 6 10 15 -4 12 3 15 30 15 40 0 74 15 74 32 0 9 -3 9 -12 0 -6 -6 -18 -8 -27 -3 -9 4 -33 4 -53 -2z"/>
 <path d="M650 225 c0 -8 5 -15 10 -15 6 0 10 7 10 15 0 8 -4 15 -10 15 -5 0 -10 -7 -10 -15z"/>
 <path d="M167 213 c-12 -11 -8 -23 8 -23 8 0 15 7 15 15 0 16 -12 20 -23 8z"/>
 </g>
<g id="layer23" fill="#eeebeb" stroke="none">
 <path d="M28 1163 c7 -3 16 -2 19 1 4 3 -2 6 -13 5 -11 0 -14 -3 -6 -6z"/>
 <path d="M518 1163 c7 -3 16 -2 19 1 4 3 -2 6 -13 5 -11 0 -14 -3 -6 -6z"/>
 <path d="M598 1163 c7 -3 16 -2 19 1 4 3 -2 6 -13 5 -11 0 -14 -3 -6 -6z"/>
 <path d="M520 1131 c0 -5 5 -13 10 -16 6 -3 10 -2 10 4 0 5 -4 13 -10 16 -5 3 -10 2 -10 -4z"/>
 <path d="M640 1045 c-7 -9 -10 -19 -6 -22 8 -9 38 9 44 25 5 17 -23 15 -38 -3z"/>
 <path d="M60 980 c0 -5 7 -10 15 -10 8 0 15 5 15 10 0 6 -7 10 -15 10 -8 0 -15 -4 -15 -10z"/>
 <path d="M290 981 c0 -12 36 -20 60 -14 34 9 22 23 -20 23 -22 0 -40 -4 -40 -9z"/>
 <path d="M540 960 c0 -5 7 -10 15 -10 8 0 15 5 15 10 0 6 -7 10 -15 10 -8 0 -15 -4 -15 -10z"/>
 <path d="M220 861 c0 -5 5 -13 10 -16 6 -3 10 -2 10 4 0 5 -4 13 -10 16 -5 3 -10 2 -10 -4z"/>
 <path d="M2 840 c0 -14 2 -19 5 -12 2 6 2 18 0 25 -3 6 -5 1 -5 -13z"/>
 <path d="M351 823 c-1 -12 4 -25 9 -28 12 -7 12 2 0 30 -8 19 -9 19 -9 -2z"/>
 <path d="M415 808 c9 -40 10 -42 30 -35 17 7 21 37 5 37 -5 0 -10 7 -10 15 0 8 -7 15 -16 15 -12 0 -14 -7 -9 -32z"/>
 <path d="M320 750 c0 -5 7 -10 15 -10 8 0 15 5 15 10 0 6 -7 10 -15 10 -8 0 -15 -4 -15 -10z"/>
 <path d="M210 730 c0 -5 7 -10 15 -10 8 0 15 5 15 10 0 6 -7 10 -15 10 -8 0 -15 -4 -15 -10z"/>
 <path d="M962 728 c6 -18 28 -21 28 -4 0 9 -7 16 -16 16 -9 0 -14 -5 -12 -12z"/>
 <path d="M80 720 c0 -5 7 -10 15 -10 8 0 15 5 15 10 0 6 -7 10 -15 10 -8 0 -15 -4 -15 -10z"/>
 <path d="M475 719 c-4 -6 -5 -13 -2 -16 7 -7 27 6 27 18 0 12 -17 12 -25 -2z"/>
 <path d="M740 720 c0 -5 7 -10 15 -10 8 0 15 5 15 10 0 6 -7 10 -15 10 -8 0 -15 -4 -15 -10z"/>
 <path d="M217 683 c-4 -3 -7 -11 -7 -17 0 -6 5 -5 12 2 6 6 9 14 7 17 -3 3 -9 2 -12 -2z"/>
 <path d="M660 665 c0 -8 5 -15 10 -15 6 0 10 7 10 15 0 8 -4 15 -10 15 -5 0 -10 -7 -10 -15z"/>
 <path d="M700 670 c0 -5 5 -10 10 -10 6 0 10 5 10 10 0 6 -4 10 -10 10 -5 0 -10 -4 -10 -10z"/>
 <path d="M200 585 c0 -8 5 -15 10 -15 6 0 10 7 10 15 0 8 -4 15 -10 15 -5 0 -10 -7 -10 -15z"/>
 <path d="M700 585 c0 -8 5 -15 10 -15 6 0 10 7 10 15 0 8 -4 15 -10 15 -5 0 -10 -7 -10 -15z"/>
 <path d="M520 551 c0 -5 5 -13 10 -16 6 -3 10 -2 10 4 0 5 -4 13 -10 16 -5 3 -10 2 -10 -4z"/>
 <path d="M580 530 c0 -5 5 -10 10 -10 6 0 10 5 10 10 0 6 -4 10 -10 10 -5 0 -10 -4 -10 -10z"/>
 <path d="M750 470 c0 -5 5 -10 10 -10 6 0 10 5 10 10 0 6 -4 10 -10 10 -5 0 -10 -4 -10 -10z"/>
 <path d="M240 450 c0 -5 7 -10 15 -10 8 0 15 5 15 10 0 6 -7 10 -15 10 -8 0 -15 -4 -15 -10z"/>
 <path d="M290 300 c0 -5 7 -10 15 -10 8 0 15 5 15 10 0 6 -7 10 -15 10 -8 0 -15 -4 -15 -10z"/>
 <path d="M717 303 c-4 -3 -7 -11 -7 -17 0 -6 5 -5 12 2 6 6 9 14 7 17 -3 3 -9 2 -12 -2z"/>
 <path d="M380 235 c0 -8 5 -15 10 -15 6 0 10 7 10 15 0 8 -4 15 -10 15 -5 0 -10 -7 -10 -15z"/>
 <path d="M530 200 c0 -5 5 -10 10 -10 6 0 10 5 10 10 0 6 -4 10 -10 10 -5 0 -10 -4 -10 -10z"/>
 <path d="M540 168 c0 -19 18 -43 25 -36 9 9 -4 48 -16 48 -5 0 -9 -6 -9 -12z"/>
 <path d="M47 163 c-4 -3 -7 -11 -7 -17 0 -6 5 -5 12 2 6 6 9 14 7 17 -3 3 -9 2 -12 -2z"/>
 <path d="M88 163 c7 -3 16 -2 19 1 4 3 -2 6 -13 5 -11 0 -14 -3 -6 -6z"/>
 <path d="M600 150 c0 -5 9 -10 20 -10 11 0 20 5 20 10 0 6 -9 10 -20 10 -11 0 -20 -4 -20 -10z"/>
 <path d="M190 75 c0 -8 5 -15 10 -15 6 0 10 7 10 15 0 8 -4 15 -10 15 -5 0 -10 -7 -10 -15z"/>
 </g>
<g id="layer24" fill="#d16e56" stroke="none">
 <path d="M50 936 c0 -8 5 -18 10 -21 6 -3 10 3 10 14 0 12 -4 21 -10 21 -5 0 -10 -6 -10 -14z"/>
 <path d="M80 910 c0 -5 7 -10 15 -10 8 0 15 5 15 10 0 6 -7 10 -15 10 -8 0 -15 -4 -15 -10z"/>
 <path d="M560 910 c0 -5 9 -10 20 -10 11 0 20 5 20 10 0 6 -9 10 -20 10 -11 0 -20 -4 -20 -10z"/>
 <path d="M440 895 c0 -18 19 -40 26 -32 4 4 0 15 -9 24 -9 10 -17 13 -17 8z"/>
 <path d="M470 802 c0 -31 4 -42 15 -42 19 0 19 39 0 64 -14 18 -15 17 -15 -22z"/>
 <path d="M510 810 c0 -5 5 -10 10 -10 6 0 10 5 10 10 0 6 -4 10 -10 10 -5 0 -10 -4 -10 -10z"/>
 <path d="M362 798 c6 -18 28 -21 28 -4 0 9 -7 16 -16 16 -9 0 -14 -5 -12 -12z"/>
 <path d="M680 800 c0 -5 5 -10 10 -10 6 0 10 5 10 10 0 6 -4 10 -10 10 -5 0 -10 -4 -10 -10z"/>
 <path d="M146 774 c-16 -16 -22 -64 -8 -64 14 0 29 15 29 30 0 8 4 23 8 33 9 21 -8 22 -29 1z"/>
 <path d="M550 783 c0 -13 22 -33 37 -33 7 0 13 7 13 15 0 8 -4 15 -9 15 -5 0 -16 3 -25 6 -9 3 -16 2 -16 -3z"/>
 <path d="M73 765 c-17 -19 -28 -65 -15 -65 5 0 13 11 16 25 4 14 13 25 21 25 8 0 15 7 15 15 0 19 -21 19 -37 0z"/>
 <path d="M702 760 c-16 -26 -15 -30 3 -30 9 0 15 9 15 25 0 30 -2 31 -18 5z"/>
 <path d="M620 755 c0 -8 -9 -19 -20 -25 -27 -14 -25 -31 3 -27 41 5 60 22 52 46 -7 24 -35 29 -35 6z"/>
 <path d="M207 753 c-12 -11 -8 -23 8 -23 8 0 15 7 15 15 0 16 -12 20 -23 8z"/>
 <path d="M370 725 c0 -8 5 -15 10 -15 6 0 10 7 10 15 0 8 -4 15 -10 15 -5 0 -10 -7 -10 -15z"/>
 <path d="M550 730 c0 -5 7 -10 15 -10 8 0 15 5 15 10 0 6 -7 10 -15 10 -8 0 -15 -4 -15 -10z"/>
 <path d="M184 709 c-8 -14 11 -33 25 -25 6 4 11 14 11 22 0 16 -26 19 -36 3z"/>
 <path d="M674 709 c-3 -6 -2 -15 4 -21 13 -13 32 -2 32 18 0 16 -26 19 -36 3z"/>
 <path d="M810 710 c0 -5 5 -10 10 -10 6 0 10 5 10 10 0 6 -4 10 -10 10 -5 0 -10 -4 -10 -10z"/>
 <path d="M550 695 c0 -8 5 -15 10 -15 6 0 10 7 10 15 0 8 -4 15 -10 15 -5 0 -10 -7 -10 -15z"/>
 <path d="M557 363 c-15 -14 -6 -23 18 -17 15 4 25 2 25 -5 0 -6 -4 -11 -10 -11 -5 0 -10 -7 -10 -15 0 -20 16 -19 24 1 13 34 7 54 -17 54 -13 0 -27 -3 -30 -7z"/>
 <path d="M250 296 c0 -11 10 -16 31 -16 38 0 35 24 -4 28 -19 2 -27 -1 -27 -12z"/>
 <path d="M760 281 c0 -5 5 -13 10 -16 6 -3 10 -2 10 4 0 5 -4 13 -10 16 -5 3 -10 2 -10 -4z"/>
 <path d="M100 241 c0 -5 5 -13 10 -16 6 -3 10 -2 10 4 0 5 -4 13 -10 16 -5 3 -10 2 -10 -4z"/>
 <path d="M582 238 c6 -17 36 -34 45 -24 4 4 -1 14 -11 22 -24 17 -39 18 -34 2z"/>
 <path d="M650 214 c0 -9 -7 -22 -17 -29 -9 -7 -14 -19 -10 -29 10 -26 34 -18 41 14 4 21 11 30 26 30 27 0 26 16 -2 24 -34 9 -38 8 -38 -10z"/>
 <path d="M150 201 c0 -11 -4 -23 -10 -26 -15 -10 -12 -35 5 -35 8 0 15 8 15 18 0 10 5 23 11 29 6 6 8 16 5 22 -11 18 -26 13 -26 -8z"/>
 <path d="M210 185 c0 -8 5 -15 10 -15 6 0 10 7 10 15 0 8 -4 15 -10 15 -5 0 -10 -7 -10 -15z"/>
 <path d="M540 159 c0 -13 38 -49 52 -49 13 0 22 30 12 39 -16 15 -64 22 -64 10z"/>
 <path d="M84 145 c4 -11 -1 -15 -17 -15 -12 0 -29 -4 -36 -9 -12 -8 -9 -11 11 -16 40 -10 66 2 66 30 0 15 -6 25 -15 25 -9 0 -13 -6 -9 -15z"/>
 <path d="M172 118 c7 -20 48 -23 48 -4 0 11 -9 16 -26 16 -16 0 -24 -5 -22 -12z"/>
 <path d="M680 115 c0 -8 9 -15 20 -15 11 0 20 7 20 15 0 8 -9 15 -20 15 -11 0 -20 -7 -20 -15z"/>
 </g>
<g id="layer25" fill="#4f504e" stroke="none">
 <path d="M657 1153 c7 -2 9 -11 6 -19 -6 -16 14 -19 37 -4 18 11 13 16 -25 22 -16 3 -25 3 -18 1z"/>
 <path d="M170 1126 c0 -13 7 -27 16 -30 23 -9 26 -3 18 28 -8 33 -34 35 -34 2z"/>
 <path d="M568 1103 c7 -3 16 -2 19 1 4 3 -2 6 -13 5 -11 0 -14 -3 -6 -6z"/>
 <path d="M198 1063 c-20 -5 -25 -43 -7 -43 12 0 38 29 39 43 0 7 -4 7 -32 0z"/>
 <path d="M674 1059 c-3 -6 1 -18 10 -27 15 -15 16 -14 16 11 0 27 -13 36 -26 16z"/>
 <path d="M570 1002 c0 -11 7 -25 15 -32 8 -7 12 -16 9 -22 -3 -5 -1 -15 6 -23 16 -19 -22 -30 -49 -13 -28 17 -41 -1 -13 -19 12 -9 22 -20 22 -25 0 -10 25 -38 34 -38 3 0 6 14 6 30 0 21 5 30 16 30 10 0 14 6 11 14 -3 8 1 17 9 20 10 4 14 -2 14 -19 0 -14 5 -25 11 -25 6 0 9 7 6 14 -4 10 -1 13 9 9 8 -3 14 1 14 11 0 9 -7 16 -16 16 -8 0 -13 4 -9 10 9 15 -18 50 -35 45 -9 -3 -26 4 -38 15 -21 20 -22 20 -22 2z"/>
 <path d="M90 986 c0 -8 4 -17 8 -20 14 -8 5 -69 -12 -82 -21 -15 -21 -34 0 -34 9 0 18 9 21 20 3 11 12 20 20 20 9 0 13 6 10 14 -3 8 4 18 18 24 15 7 23 19 23 37 0 24 -3 26 -29 21 -15 -3 -31 -1 -34 4 -9 15 -25 12 -25 -4z"/>
 <path d="M168 913 c7 -3 16 -2 19 1 4 3 -2 6 -13 5 -11 0 -14 -3 -6 -6z"/>
 <path d="M860 710 c0 -5 7 -10 15 -10 8 0 15 5 15 10 0 6 -7 10 -15 10 -8 0 -15 -4 -15 -10z"/>
 <path d="M56 567 c-14 -10 -16 -20 -11 -37 7 -22 8 -22 18 -4 6 10 15 22 21 26 8 5 8 10 0 18 -7 7 -16 6 -28 -3z"/>
 <path d="M520 573 c0 -5 7 -16 14 -26 12 -16 17 -16 35 -5 12 7 21 20 21 28 0 12 -2 12 -9 1 -6 -9 -11 -10 -15 -2 -8 12 -46 15 -46 4z"/>
 <path d="M720 436 c0 -9 7 -16 16 -16 17 0 14 22 -4 28 -7 2 -12 -3 -12 -12z"/>
 <path d="M621 388 c0 -18 -2 -43 -6 -55 -9 -30 9 -30 29 -1 9 12 16 19 16 15 0 -5 7 -2 15 7 8 8 15 19 15 25 0 15 -23 14 -38 -1 -9 -9 -12 -6 -12 15 0 15 -5 27 -10 27 -6 0 -10 -15 -9 -32z"/>
 <path d="M750 300 c0 -5 7 -10 15 -10 8 0 15 5 15 10 0 6 -7 10 -15 10 -8 0 -15 -4 -15 -10z"/>
 <path d="M570 285 c0 -8 7 -15 15 -15 8 0 15 7 15 15 0 8 -7 15 -15 15 -8 0 -15 -7 -15 -15z"/>
 <path d="M620 290 c0 -5 5 -10 10 -10 6 0 10 5 10 10 0 6 -4 10 -10 10 -5 0 -10 -4 -10 -10z"/>
 <path d="M185 279 c-5 -7 -1 -17 10 -26 17 -12 17 -13 2 -13 -10 0 -20 7 -23 15 -8 21 -64 20 -64 -1 0 -12 7 -15 24 -12 18 4 23 1 18 -10 -4 -12 0 -14 19 -9 13 4 39 7 57 7 27 0 32 3 32 25 0 14 -6 25 -12 25 -7 0 -23 3 -34 6 -12 3 -25 0 -29 -7z"/>
 <path d="M310 266 c0 -8 5 -18 10 -21 6 -3 10 3 10 14 0 12 -4 21 -10 21 -5 0 -10 -6 -10 -14z"/>
 <path d="M200 200 c0 -5 7 -10 15 -10 8 0 15 5 15 10 0 6 -7 10 -15 10 -8 0 -15 -4 -15 -10z"/>
 </g>
<g id="layer26" fill="#353530" stroke="none">
 <path d="M49 1149 c16 -6 28 -6 35 1 7 7 -1 10 -24 9 -33 0 -34 -1 -11 -10z"/>
 <path d="M658 1148 c9 -9 15 -9 24 0 9 9 7 12 -12 12 -19 0 -21 -3 -12 -12z"/>
 <path d="M195 1091 c-3 -10 -3 -26 1 -35 4 -10 1 -16 -7 -16 -18 -1 -59 -35 -59 -50 0 -6 11 -10 27 -8 20 2 32 14 49 45 12 24 20 52 17 63 -7 25 -20 26 -28 1z"/>
 <path d="M567 1103 c-4 -3 -7 -11 -7 -17 0 -6 5 -5 12 2 6 6 9 14 7 17 -3 3 -9 2 -12 -2z"/>
 <path d="M600 1081 c0 -5 5 -13 10 -16 6 -3 10 -2 10 4 0 5 -4 13 -10 16 -5 3 -10 2 -10 -4z"/>
 <path d="M667 1083 c-16 -15 -7 -35 13 -30 11 3 18 1 14 -4 -3 -5 -10 -9 -15 -9 -6 0 -26 -17 -45 -37 -27 -30 -36 -35 -43 -24 -10 15 -31 7 -31 -13 0 -24 43 -28 62 -6 9 11 23 20 31 20 20 0 57 52 57 78 0 11 -7 23 -16 26 -19 7 -19 7 -27 -1z"/>
 <path d="M60 1066 c0 -9 7 -16 16 -16 17 0 14 22 -4 28 -7 2 -12 -3 -12 -12z"/>
 <path d="M570 1050 c0 -5 5 -10 10 -10 6 0 10 5 10 10 0 6 -4 10 -10 10 -5 0 -10 -4 -10 -10z"/>
 <path d="M80 987 c0 -22 26 -51 38 -43 17 10 15 26 -3 26 -9 0 -12 6 -9 15 4 9 0 15 -10 15 -9 0 -16 -6 -16 -13z"/>
 <path d="M190 970 c0 -5 7 -10 15 -10 8 0 15 5 15 10 0 6 -7 10 -15 10 -8 0 -15 -4 -15 -10z"/>
 <path d="M680 970 c0 -5 7 -10 15 -10 8 0 15 5 15 10 0 6 -7 10 -15 10 -8 0 -15 -4 -15 -10z"/>
 <path d="M656 928 c-3 -13 -1 -27 4 -32 12 -12 15 -8 24 27 8 34 -19 39 -28 5z"/>
 <path d="M130 925 c-17 -20 -4 -35 31 -35 20 0 29 5 29 16 0 11 -6 15 -19 11 -14 -3 -18 -1 -14 9 7 18 -11 18 -27 -1z"/>
 <path d="M622 928 c-16 -16 -15 -28 3 -28 8 0 15 2 15 4 0 2 3 11 6 20 7 19 -7 21 -24 4z"/>
 <path d="M80 880 c0 -5 5 -10 10 -10 6 0 10 5 10 10 0 6 -4 10 -10 10 -5 0 -10 -4 -10 -10z"/>
 <path d="M580 881 c0 -5 5 -13 10 -16 6 -3 10 -2 10 4 0 5 -4 13 -10 16 -5 3 -10 2 -10 -4z"/>
 <path d="M85 849 c-4 -6 -5 -13 -2 -16 7 -7 27 6 27 18 0 12 -17 12 -25 -2z"/>
 <path d="M30 565 c0 -8 5 -15 10 -15 6 0 10 7 10 15 0 8 -4 15 -10 15 -5 0 -10 -7 -10 -15z"/>
 <path d="M160 570 c0 -12 45 -24 65 -16 29 11 15 26 -25 26 -22 0 -40 -4 -40 -10z"/>
 <path d="M570 570 c0 -5 7 -10 15 -10 8 0 15 5 15 10 0 6 -7 10 -15 10 -8 0 -15 -4 -15 -10z"/>
 <path d="M653 568 c2 -7 16 -13 32 -13 16 0 30 6 33 13 2 8 -8 12 -33 12 -25 0 -35 -4 -32 -12z"/>
 <path d="M170 531 c0 -5 5 -13 10 -16 6 -3 10 -2 10 4 0 5 -4 13 -10 16 -5 3 -10 2 -10 -4z"/>
 <path d="M70 511 c0 -11 -3 -26 -6 -35 -3 -9 -1 -16 5 -16 6 0 11 9 11 21 0 16 4 19 20 14 22 -7 26 5 8 23 -18 18 -38 14 -38 -7z"/>
 <path d="M558 523 c-20 -5 -23 -18 -8 -28 14 -9 61 6 57 19 -4 12 -24 16 -49 9z"/>
 <path d="M670 490 c0 -5 5 -10 10 -10 6 0 10 5 10 10 0 6 -4 10 -10 10 -5 0 -10 -4 -10 -10z"/>
 <path d="M560 465 c0 -8 5 -15 10 -15 6 0 10 7 10 15 0 8 -4 15 -10 15 -5 0 -10 -7 -10 -15z"/>
 <path d="M737 446 c-8 -8 -23 -13 -34 -10 -14 4 -27 -5 -47 -31 -28 -36 -29 -58 -3 -36 8 6 21 9 29 6 8 -3 26 7 41 25 15 16 32 30 37 30 6 0 10 7 10 15 0 19 -14 19 -33 1z"/>
 <path d="M170 400 c0 -22 5 -40 10 -40 16 0 24 31 10 40 -8 5 -9 10 -2 14 6 3 13 2 17 -4 9 -15 25 -12 25 4 0 14 -21 26 -46 26 -10 0 -14 -12 -14 -40z"/>
 <path d="M120 410 c0 -5 7 -10 15 -10 8 0 15 5 15 10 0 6 -7 10 -15 10 -8 0 -15 -4 -15 -10z"/>
 <path d="M610 410 c0 -5 7 -10 15 -10 8 0 15 5 15 10 0 6 -7 10 -15 10 -8 0 -15 -4 -15 -10z"/>
 <path d="M80 381 c0 -6 5 -13 11 -17 8 -4 8 -9 0 -17 -13 -13 -14 -27 -2 -27 5 0 16 12 26 26 14 22 15 28 4 35 -19 12 -39 11 -39 0z"/>
 <path d="M150 340 c0 -5 7 -10 15 -10 8 0 15 5 15 10 0 6 -7 10 -15 10 -8 0 -15 -4 -15 -10z"/>
 <path d="M630 325 c-16 -20 -5 -32 14 -16 11 9 15 9 19 -1 2 -7 8 -10 12 -6 11 11 -2 38 -18 38 -8 0 -20 -7 -27 -15z"/>
 <path d="M210 280 c0 -5 7 -10 15 -10 8 0 15 5 15 10 0 6 -7 10 -15 10 -8 0 -15 -4 -15 -10z"/>
 <path d="M590 270 c0 -5 5 -10 10 -10 6 0 10 5 10 10 0 6 -4 10 -10 10 -5 0 -10 -4 -10 -10z"/>
 <path d="M260 254 c0 -10 10 -14 37 -12 51 4 54 25 3 26 -29 1 -40 -3 -40 -14z"/>
 <path d="M30 230 c0 -5 7 -10 15 -10 8 0 15 5 15 10 0 6 -7 10 -15 10 -8 0 -15 -4 -15 -10z"/>
 <path d="M184 219 c-10 -17 13 -36 27 -22 12 12 4 33 -11 33 -5 0 -12 -5 -16 -11z"/>
 </g>
<g id="layer27" fill="#3e443d" stroke="none">
 <path d="M40 1153 c1 -19 18 -33 33 -27 21 8 22 20 1 28 -21 8 -34 8 -34 -1z"/>
 <path d="M156 1151 c18 -19 59 -22 79 -7 19 14 16 15 -34 16 -34 0 -51 -4 -45 -9z"/>
 <path d="M552 1153 c-16 -3 -22 -9 -18 -20 3 -8 6 -19 6 -24 0 -5 5 -9 10 -9 6 0 10 7 10 15 0 8 6 15 14 15 7 0 19 7 26 15 13 16 3 18 -48 8z"/>
 <path d="M170 1121 c0 -5 5 -13 10 -16 6 -3 10 -2 10 4 0 5 -4 13 -10 16 -5 3 -10 2 -10 -4z"/>
 <path d="M660 1115 c0 -8 4 -15 9 -15 5 0 16 -3 25 -6 10 -4 16 -1 16 9 0 14 -20 27 -41 27 -5 0 -9 -7 -9 -15z"/>
 <path d="M220 1077 c0 -10 -5 -14 -15 -11 -11 4 -15 -1 -15 -17 0 -34 -51 -62 -85 -47 -33 15 -40 5 -20 -26 23 -35 36 -33 84 14 22 22 45 40 50 40 15 0 24 41 12 53 -8 8 -11 6 -11 -6z"/>
 <path d="M684 1055 c-10 -14 -27 -28 -36 -31 -10 -3 -18 -12 -18 -20 0 -11 -4 -12 -19 -4 -28 14 -41 12 -41 -6 0 -17 36 -54 53 -54 5 0 6 7 3 16 -5 13 -1 15 24 12 35 -5 40 9 8 22 -14 5 -17 9 -7 9 21 1 79 51 79 67 0 22 -26 16 -46 -11z"/>
 <path d="M590 914 c0 -17 22 -14 28 4 2 7 -3 12 -12 12 -9 0 -16 -7 -16 -16z"/>
 <path d="M100 910 c0 -5 5 -10 10 -10 6 0 10 5 10 10 0 6 -4 10 -10 10 -5 0 -10 -4 -10 -10z"/>
 <path d="M630 911 c0 -5 -3 -16 -6 -25 -7 -19 12 -21 31 -3 11 11 10 16 -6 25 -10 7 -19 8 -19 3z"/>
 <path d="M145 895 c-11 -8 -26 -15 -33 -15 -7 0 -20 -7 -29 -16 -12 -12 -13 -18 -4 -27 9 -9 14 -9 19 0 4 6 26 19 50 29 23 10 41 23 39 28 -5 16 -22 17 -42 1z"/>
 <path d="M567 873 c-15 -14 -6 -25 9 -12 15 12 16 11 9 -11 -7 -22 -6 -23 9 -11 22 18 20 41 -2 41 -10 0 -22 -3 -25 -7z"/>
 <path d="M185 569 c-11 -17 -2 -18 19 -3 17 12 17 14 4 14 -9 0 -20 -5 -23 -11z"/>
 <path d="M687 573 c-4 -3 -7 -11 -7 -17 0 -6 4 -6 11 1 6 6 18 9 25 6 8 -3 14 0 14 6 0 12 -32 15 -43 4z"/>
 <path d="M540 530 c0 -5 5 -10 10 -10 6 0 10 5 10 10 0 6 -4 10 -10 10 -5 0 -10 -4 -10 -10z"/>
 <path d="M660 515 c0 -8 7 -15 15 -15 8 0 15 7 15 15 0 8 -7 15 -15 15 -8 0 -15 -7 -15 -15z"/>
 <path d="M700 433 c-8 -4 -20 -14 -27 -23 -8 -12 -21 -16 -38 -12 -25 4 -26 3 -20 -30 5 -25 2 -38 -9 -47 -9 -8 -16 -20 -16 -27 0 -8 -4 -14 -10 -14 -5 0 -10 -4 -10 -9 0 -11 79 -11 86 0 3 5 14 9 25 9 22 0 26 30 7 60 -15 24 -3 50 30 65 34 15 17 41 -18 28z m-30 -109 c0 -10 -33 -33 -48 -34 -10 0 -10 5 -2 20 10 18 50 29 50 14z"/>
 <path d="M134 349 c-10 -17 13 -36 27 -22 12 12 4 33 -11 33 -5 0 -12 -5 -16 -11z"/>
 <path d="M207 290 c-3 -13 -11 -18 -20 -14 -10 3 -18 -5 -26 -27 -13 -39 -14 -49 -2 -49 5 0 11 10 14 22 5 19 8 20 23 8 10 -9 12 -16 5 -18 -13 -4 -15 -32 -2 -32 11 0 21 25 21 56 0 17 6 24 20 24 11 0 20 5 20 10 0 6 -4 10 -10 10 -5 0 -10 7 -10 15 0 22 -27 18 -33 -5z"/>
 <path d="M110 256 c0 -28 17 -43 32 -28 6 6 5 17 -4 31 -17 28 -28 27 -28 -3z"/>
 <path d="M340 256 c0 -10 9 -16 21 -16 24 0 21 23 -4 28 -10 2 -17 -3 -17 -12z"/>
 </g>
<g id="layer28" fill="#dd9462" stroke="none">
 <path d="M97 1043 c-12 -11 -8 -23 8 -23 8 0 15 7 15 15 0 16 -12 20 -23 8z"/>
 <path d="M590 1035 c-6 -8 -9 -19 -5 -25 10 -17 25 -11 25 9 0 11 6 22 13 24 7 4 6 6 -4 6 -9 1 -22 -6 -29 -14z"/>
 <path d="M703 1035 c-3 -9 -2 -19 1 -23 8 -8 38 10 44 26 6 18 -38 14 -45 -3z"/>
 <path d="M228 1033 c7 -3 16 -2 19 1 4 3 -2 6 -13 5 -11 0 -14 -3 -6 -6z"/>
 <path d="M347 953 c-4 -3 -7 -11 -7 -17 0 -6 5 -5 12 2 6 6 9 14 7 17 -3 3 -9 2 -12 -2z"/>
 <path d="M47 943 c-13 -12 -7 -26 6 -14 10 8 17 7 25 -1 13 -13 27 -4 17 11 -7 12 -38 15 -48 4z"/>
 <path d="M537 944 c-14 -14 -7 -21 23 -21 18 0 29 5 27 11 -4 13 -40 20 -50 10z"/>
 <path d="M50 881 c0 -5 5 -13 10 -16 6 -3 10 -2 10 4 0 5 -4 13 -10 16 -5 3 -10 2 -10 -4z"/>
 <path d="M330 880 c0 -5 5 -10 10 -10 6 0 10 5 10 10 0 6 -4 10 -10 10 -5 0 -10 -4 -10 -10z"/>
 <path d="M10 846 c0 -13 3 -31 6 -40 7 -17 34 -22 34 -6 0 6 -4 10 -10 10 -5 0 -10 11 -10 24 0 14 -4 28 -10 31 -6 3 -10 -5 -10 -19z"/>
 <path d="M551 854 c0 -11 3 -14 6 -6 3 7 2 16 -1 19 -3 4 -6 -2 -5 -13z"/>
 <path d="M490 840 c0 -11 7 -20 15 -20 8 0 15 9 15 20 0 11 -7 20 -15 20 -8 0 -15 -9 -15 -20z"/>
 <path d="M90 825 c0 -8 7 -15 15 -15 8 0 15 7 15 15 0 8 -7 15 -15 15 -8 0 -15 -7 -15 -15z"/>
 <path d="M570 830 c0 -5 9 -10 20 -10 11 0 20 5 20 10 0 6 -9 10 -20 10 -11 0 -20 -4 -20 -10z"/>
 <path d="M230 809 c0 -13 38 -49 52 -49 14 0 9 12 -18 36 -28 27 -34 29 -34 13z"/>
 <path d="M668 813 c-10 -2 -18 -11 -18 -18 0 -7 -5 -15 -12 -17 -7 -3 -9 -12 -5 -22 4 -11 12 -14 19 -10 7 5 25 7 40 5 16 -1 28 2 28 8 0 6 -8 11 -19 11 -14 0 -17 6 -13 25 2 14 3 24 1 24 -2 -1 -12 -3 -21 -6z"/>
 <path d="M160 801 c0 -24 21 -62 33 -58 6 2 24 -3 39 -11 34 -19 50 -7 20 14 -12 8 -22 20 -22 26 0 6 -8 17 -17 24 -21 15 -53 18 -53 5z"/>
 <path d="M530 795 c0 -8 5 -15 10 -15 6 0 10 7 10 15 0 8 -4 15 -10 15 -5 0 -10 -7 -10 -15z"/>
 <path d="M720 803 c0 -9 56 -49 83 -59 32 -12 17 12 -24 39 -41 27 -59 33 -59 20z"/>
 <path d="M140 766 c0 -13 34 -66 42 -66 15 0 8 21 -17 48 -14 15 -25 23 -25 18z"/>
 <path d="M310 751 c0 -16 38 -33 60 -26 28 9 25 25 -4 25 -13 0 -31 3 -40 6 -9 3 -16 1 -16 -5z"/>
 <path d="M840 735 c0 -8 5 -15 10 -15 6 0 10 7 10 15 0 8 -4 15 -10 15 -5 0 -10 -7 -10 -15z"/>
 <path d="M290 716 c0 -9 8 -16 20 -16 10 0 23 -7 28 -16 7 -13 13 -14 31 -5 29 16 27 28 -6 34 -16 3 -38 8 -50 12 -17 6 -23 3 -23 -9z"/>
 <path d="M660 715 c0 -8 5 -15 10 -15 6 0 10 7 10 15 0 8 -4 15 -10 15 -5 0 -10 -7 -10 -15z"/>
 <path d="M780 715 c0 -8 7 -15 15 -15 8 0 15 7 15 15 0 8 -7 15 -15 15 -8 0 -15 -7 -15 -15z"/>
 <path d="M837 703 c-14 -13 -6 -24 15 -21 27 4 36 28 11 28 -11 0 -23 -3 -26 -7z"/>
 <path d="M105 470 c-7 -11 18 -40 34 -40 14 0 13 11 -3 33 -15 20 -22 21 -31 7z"/>
 <path d="M216 464 c-10 -25 -7 -34 9 -34 9 0 15 9 15 25 0 28 -15 34 -24 9z"/>
 <path d="M570 350 c0 -15 5 -20 18 -18 9 2 17 10 17 18 0 8 -8 16 -17 18 -13 2 -18 -3 -18 -18z"/>
 <path d="M58 319 c-22 -12 -24 -59 -3 -59 8 0 15 9 15 20 0 11 7 20 15 20 8 0 15 7 15 15 0 17 -17 19 -42 4z"/>
 <path d="M170 311 c0 -5 5 -13 10 -16 6 -3 10 -2 10 4 0 5 -4 13 -10 16 -5 3 -10 2 -10 -4z"/>
 <path d="M777 313 c-12 -11 -8 -23 8 -23 8 0 15 7 15 15 0 16 -12 20 -23 8z"/>
 <path d="M255 299 c-4 -5 -5 -11 -4 -12 2 -2 11 -8 20 -15 9 -7 24 -10 33 -6 22 8 21 36 -1 32 -10 -1 -23 1 -30 5 -6 4 -15 2 -18 -4z"/>
 <path d="M500 290 c0 -5 7 -10 15 -10 8 0 15 5 15 10 0 6 -7 10 -15 10 -8 0 -15 -4 -15 -10z"/>
 <path d="M550 265 c0 -8 5 -15 10 -15 6 0 10 7 10 15 0 8 -4 15 -10 15 -5 0 -10 -7 -10 -15z"/>
 <path d="M740 244 c0 -17 22 -14 28 4 2 7 -3 12 -12 12 -9 0 -16 -7 -16 -16z"/>
 <path d="M780 230 c0 -5 7 -10 15 -10 8 0 15 5 15 10 0 6 -7 10 -15 10 -8 0 -15 -4 -15 -10z"/>
 <path d="M100 216 c0 -9 7 -16 16 -16 17 0 14 22 -4 28 -7 2 -12 -3 -12 -12z"/>
 <path d="M660 210 c-27 -27 -25 -40 5 -27 14 7 25 20 25 30 0 22 -5 22 -30 -3z"/>
 <path d="M40 210 c0 -5 7 -10 15 -10 8 0 15 5 15 10 0 6 -7 10 -15 10 -8 0 -15 -4 -15 -10z"/>
 <path d="M718 204 c-16 -8 -28 -21 -28 -29 0 -20 26 -19 34 0 3 8 15 15 26 15 11 0 20 7 20 15 0 19 -17 19 -52 -1z"/>
 <path d="M132 180 c-18 -29 -15 -37 13 -42 22 -5 24 -3 19 21 -9 37 -18 43 -32 21z"/>
 <path d="M190 161 c0 -34 15 -49 24 -25 11 28 6 54 -9 54 -10 0 -15 -10 -15 -29z"/>
 <path d="M560 180 c0 -5 11 -10 25 -10 14 0 25 5 25 10 0 6 -11 10 -25 10 -14 0 -25 -4 -25 -10z"/>
 <path d="M684 139 c-10 -17 13 -36 27 -22 12 12 4 33 -11 33 -5 0 -12 -5 -16 -11z"/>
 </g>
<g id="layer29" fill="#ee975a" stroke="none">
 <path d="M313 983 c-7 -2 -13 -12 -13 -20 0 -10 6 -13 16 -9 9 3 18 6 20 6 2 0 4 7 4 15 0 15 -6 17 -27 8z"/>
 <path d="M338 943 c17 -7 5 -23 -19 -23 -26 0 -24 -16 3 -23 26 -7 38 -1 38 19 0 8 5 14 10 14 6 0 10 5 10 10 0 6 -12 10 -27 9 -16 0 -22 -3 -15 -6z"/>
 <path d="M544 935 c-4 -10 -1 -21 7 -26 23 -14 31 -10 27 13 -4 27 -26 35 -34 13z"/>
 <path d="M50 934 c0 -10 31 -36 37 -31 10 10 -6 37 -22 37 -8 0 -15 -3 -15 -6z"/>
 <path d="M20 851 c0 -41 4 -51 25 -65 31 -20 65 -21 65 -1 0 8 -7 15 -15 15 -9 0 -15 9 -15 24 0 16 -7 27 -20 31 -15 5 -19 12 -15 26 4 13 2 19 -9 19 -12 0 -16 -11 -16 -49z"/>
 <path d="M504 865 c-7 -37 7 -65 33 -65 7 0 16 -7 19 -15 4 -8 15 -15 25 -15 10 0 19 7 19 15 0 8 -6 15 -14 15 -8 0 -20 14 -28 30 -7 17 -17 30 -21 30 -5 0 -5 9 -2 20 4 14 2 20 -9 20 -9 0 -18 -13 -22 -35z"/>
 <path d="M100 820 c0 -5 7 -10 15 -10 8 0 15 5 15 10 0 6 -7 10 -15 10 -8 0 -15 -4 -15 -10z"/>
 <path d="M373 794 c-3 -8 -1 -20 4 -25 7 -7 11 -2 11 15 0 29 -6 33 -15 10z"/>
 <path d="M150 775 c0 -16 6 -25 16 -25 11 0 14 5 10 16 -3 9 -6 20 -6 25 0 5 -4 9 -10 9 -5 0 -10 -11 -10 -25z"/>
 <path d="M713 773 c-8 -19 27 -51 66 -59 14 -3 34 -9 43 -15 28 -15 38 -11 38 15 0 25 -20 39 -44 30 -7 -3 -20 1 -28 8 -15 14 -55 38 -63 38 -3 0 -8 -7 -12 -17z"/>
 <path d="M220 767 c0 -21 33 -46 71 -53 19 -4 39 -11 46 -16 16 -13 33 -1 33 23 0 14 -7 19 -30 19 -16 0 -30 5 -30 12 0 6 -3 8 -6 5 -4 -3 -16 0 -28 8 -26 19 -56 19 -56 2z"/>
 <path d="M560 346 c0 -15 37 -32 47 -22 9 8 -17 36 -33 36 -8 0 -14 -6 -14 -14z"/>
 <path d="M100 315 c0 -8 5 -15 10 -15 6 0 10 7 10 15 0 8 -4 15 -10 15 -5 0 -10 -7 -10 -15z"/>
 <path d="M58 258 c-3 -35 -1 -69 5 -75 13 -18 47 -16 47 2 0 8 -4 15 -10 15 -13 0 -13 47 0 52 12 4 -16 68 -30 68 -4 0 -10 -28 -12 -62z"/>
 <path d="M146 311 c-9 -14 5 -42 18 -38 18 6 20 47 2 47 -8 0 -17 -4 -20 -9z"/>
 <path d="M516 295 c-22 -33 -21 -39 12 -67 15 -13 31 -31 35 -41 7 -19 32 -23 43 -5 4 6 0 16 -8 22 -8 6 -21 26 -29 44 -7 17 -20 32 -27 32 -9 0 -11 7 -7 20 9 27 1 25 -19 -5z"/>
 <path d="M775 298 c-2 -7 -5 -22 -7 -33 -2 -12 -10 -19 -21 -17 -11 2 -17 -4 -17 -18 0 -15 6 -20 25 -20 14 0 25 5 25 11 0 6 7 17 15 25 20 20 20 64 0 64 -9 0 -17 -6 -20 -12z"/>
 <path d="M590 235 c0 -8 7 -15 15 -15 8 0 15 7 15 15 0 8 -7 15 -15 15 -8 0 -15 -7 -15 -15z"/>
 <path d="M647 203 c-12 -12 -7 -50 8 -63 12 -10 15 -9 15 6 0 11 3 29 6 42 5 15 2 22 -8 22 -8 0 -18 -3 -21 -7z"/>
 <path d="M140 182 c0 -5 6 -17 14 -27 13 -18 14 -17 14 8 0 16 -6 27 -14 27 -8 0 -14 -4 -14 -8z"/>
 </g>
<g id="layer30" fill="#f4ae6e" stroke="none">
 <path d="M107 1043 c-11 -10 -8 -41 4 -49 16 -9 43 21 36 40 -7 16 -28 21 -40 9z"/>
 <path d="M594 1035 c-4 -9 -2 -21 4 -27 15 -15 44 -1 40 19 -4 23 -36 29 -44 8z"/>
 <path d="M710 1030 c0 -11 7 -20 15 -20 8 0 15 9 15 20 0 11 -7 20 -15 20 -8 0 -15 -9 -15 -20z"/>
 <path d="M214 1029 c-8 -14 11 -33 25 -25 6 4 11 14 11 22 0 16 -26 19 -36 3z"/>
 <path d="M290 960 c0 -5 7 -10 15 -10 8 0 15 5 15 10 0 6 -7 10 -15 10 -8 0 -15 -4 -15 -10z"/>
 <path d="M60 926 c0 -21 21 -31 31 -15 14 22 11 29 -11 29 -11 0 -20 -6 -20 -14z"/>
 <path d="M568 932 c-10 -2 -18 -8 -18 -13 0 -13 27 -11 35 2 9 13 4 16 -17 11z"/>
 <path d="M32 848 c1 -35 6 -48 31 -67 22 -19 33 -22 46 -14 23 15 26 42 4 49 -37 11 -48 21 -48 45 0 14 -7 25 -17 27 -14 3 -17 -4 -16 -40z"/>
 <path d="M514 875 c-3 -8 -2 -20 2 -27 5 -7 7 -20 6 -28 -1 -8 14 -26 33 -39 33 -22 38 -23 52 -9 19 20 8 61 -15 56 -24 -5 -39 12 -34 39 3 18 0 23 -17 23 -12 0 -24 -7 -27 -15z"/>
 <path d="M224 796 c-3 -8 -12 -12 -20 -9 -8 3 -14 1 -14 -5 0 -13 66 -52 88 -52 9 0 30 -7 46 -15 33 -17 56 -19 56 -5 0 6 -9 10 -20 10 -11 0 -20 4 -20 10 0 5 -19 22 -42 36 -24 15 -44 31 -46 35 -6 14 -22 10 -28 -5z"/>
 <path d="M636 791 c-11 -17 15 -69 37 -75 48 -13 50 4 7 52 -32 35 -36 37 -44 23z"/>
 <path d="M680 783 c0 -8 7 -13 18 -11 9 2 21 -5 27 -17 7 -13 26 -22 55 -27 25 -4 46 -12 48 -18 5 -14 32 -12 32 3 -1 12 -63 57 -79 57 -5 0 -14 7 -21 15 -16 19 -80 17 -80 -2z"/>
 <path d="M154 764 c3 -9 6 -22 6 -30 0 -9 11 -14 30 -14 36 0 38 9 7 38 -27 26 -52 29 -43 6z"/>
 <path d="M100 455 c-11 -13 -11 -19 3 -33 20 -19 41 -5 35 24 -4 24 -22 28 -38 9z"/>
 <path d="M217 463 c-4 -3 -7 -15 -7 -25 0 -22 26 -24 34 -2 10 25 -10 45 -27 27z"/>
 <path d="M710 460 c0 -5 7 -10 15 -10 8 0 15 5 15 10 0 6 -7 10 -15 10 -8 0 -15 -4 -15 -10z"/>
 <path d="M600 441 c0 -24 18 -37 32 -23 8 8 7 16 -2 27 -17 21 -30 19 -30 -4z"/>
 <path d="M570 347 c0 -22 11 -27 26 -12 19 19 18 25 -6 25 -11 0 -20 -6 -20 -13z"/>
 <path d="M68 309 c-37 -21 -9 -129 33 -129 15 0 23 30 10 43 -14 14 -15 47 -1 47 6 0 10 11 10 25 0 27 -21 33 -52 14z"/>
 <path d="M150 301 c0 -12 2 -21 4 -21 2 0 12 -3 21 -6 13 -5 16 -2 13 17 -4 31 -38 39 -38 10z"/>
 <path d="M525 306 c-3 -9 -7 -23 -10 -32 -8 -25 46 -84 78 -84 17 0 27 5 27 15 0 8 -7 15 -15 15 -8 0 -15 7 -15 15 0 7 -6 18 -14 22 -7 4 -13 19 -12 33 1 28 -31 41 -39 16z"/>
 <path d="M776 303 c-3 -4 -6 -14 -6 -23 0 -9 -11 -26 -25 -38 -14 -12 -25 -29 -25 -37 0 -18 -1 -18 38 -4 39 13 63 70 39 93 -8 8 -17 12 -21 9z"/>
 <path d="M150 178 c0 -33 12 -47 38 -45 27 2 29 28 4 50 -26 23 -42 21 -42 -5z"/>
 <path d="M662 188 c-7 -7 -12 -20 -12 -30 0 -13 8 -18 30 -18 32 0 38 14 16 43 -16 20 -18 21 -34 5z"/>
 </g>

</svg>